<svg id="my-svg" width="100%" xmlns="http://www.w3.org/2000/svg" xmlns:xlink="http://www.w3.org/1999/xlink" class="flowchart" style="max-width: 1378.1px; background-color: white;" viewBox="0 0 1378.10498046875 138" role="graphics-document document" aria-roledescription="flowchart-v2"><style>#my-svg{font-family:Arial,Helvetica,sans-serif;font-size:16px;fill:#000000;}@keyframes edge-animation-frame{from{stroke-dashoffset:0;}}@keyframes dash{to{stroke-dashoffset:0;}}#my-svg .edge-animation-slow{stroke-dasharray:9,5!important;stroke-dashoffset:900;animation:dash 50s linear infinite;stroke-linecap:round;}#my-svg .edge-animation-fast{stroke-dasharray:9,5!important;stroke-dashoffset:900;animation:dash 20s linear infinite;stroke-linecap:round;}#my-svg .error-icon{fill:#552222;}#my-svg .error-text{fill:#552222;stroke:#552222;}#my-svg .edge-thickness-normal{stroke-width:1px;}#my-svg .edge-thickness-thick{stroke-width:3.5px;}#my-svg .edge-pattern-solid{stroke-dasharray:0;}#my-svg .edge-thickness-invisible{stroke-width:0;fill:none;}#my-svg .edge-pattern-dashed{stroke-dasharray:3;}#my-svg .edge-pattern-dotted{stroke-dasharray:2;}#my-svg .marker{fill:#666;stroke:#666;}#my-svg .marker.cross{stroke:#666;}#my-svg svg{font-family:Arial,Helvetica,sans-serif;font-size:16px;}#my-svg p{margin:0;}#my-svg .label{font-family:Arial,Helvetica,sans-serif;color:#000000;}#my-svg .cluster-label text{fill:#333;}#my-svg .cluster-label span{color:#333;}#my-svg .cluster-label span p{background-color:transparent;}#my-svg .label text,#my-svg span{fill:#000000;color:#000000;}#my-svg .node rect,#my-svg .node circle,#my-svg .node ellipse,#my-svg .node polygon,#my-svg .node path{fill:#eee;stroke:#999;stroke-width:1px;}#my-svg .rough-node .label text,#my-svg .node .label text,#my-svg .image-shape .label,#my-svg .icon-shape .label{text-anchor:middle;}#my-svg .node .katex path{fill:#000;stroke:#000;stroke-width:1px;}#my-svg .rough-node .label,#my-svg .node .label,#my-svg .image-shape .label,#my-svg .icon-shape .label{text-align:center;}#my-svg .node.clickable{cursor:pointer;}#my-svg .root .anchor path{fill:#666!important;stroke-width:0;stroke:#666;}#my-svg .arrowheadPath{fill:#333333;}#my-svg .edgePaths .path{stroke:#666;stroke-width:1px;}#my-svg .flowchart-link{stroke:#666;fill:none;}#my-svg .edgeLabel{background-color:white;text-align:center;}#my-svg .edgeLabel p{background-color:white;}#my-svg .edgeLabel rect{opacity:0.5;background-color:white;fill:white;}#my-svg .labelBkg{background-color:rgba(255, 255, 255, 0.5);}#my-svg .cluster rect{fill:hsl(0, 0%, 98.9215686275%);stroke:#707070;stroke-width:1px;}#my-svg .cluster text{fill:#333;}#my-svg .cluster span{color:#333;}#my-svg .node .collapsed-indicator{fill:#707070;stroke:none;opacity:0.6;}#my-svg .node .collapsed-separator{stroke:#707070;stroke-width:0.75px;}#my-svg div.mermaidTooltip{position:absolute;text-align:center;max-width:200px;padding:2px;font-family:Arial,Helvetica,sans-serif;font-size:12px;background:hsl(-160, 0%, 93.3333333333%);border:1px solid #707070;border-radius:2px;pointer-events:none;z-index:100;}#my-svg .flowchartTitleText{text-anchor:middle;font-size:18px;fill:#000000;}#my-svg rect.text{fill:none;stroke-width:0;}#my-svg .icon-shape,#my-svg .image-shape{background-color:white;text-align:center;}#my-svg .icon-shape p,#my-svg .image-shape p{background-color:white;padding:2px;}#my-svg .icon-shape .label rect,#my-svg .image-shape .label rect{opacity:0.5;background-color:white;fill:white;}#my-svg .label-icon{display:inline-block;height:1em;overflow:visible;vertical-align:-0.125em;}#my-svg .node .label-icon path{fill:currentColor;stroke:revert;stroke-width:revert;}#my-svg .node .neo-node{stroke:#999;}#my-svg [data-look="neo"].node rect,#my-svg [data-look="neo"].cluster rect,#my-svg [data-look="neo"].node polygon{stroke:url(#my-svg-gradient);filter:drop-shadow( 1px 2px 2px rgba(185,185,185,1));}#my-svg [data-look="neo"].swimlane.cluster rect{filter:none;}#my-svg [data-look="neo"].node path{stroke:url(#my-svg-gradient);stroke-width:1px;}#my-svg [data-look="neo"].node .outer-path{filter:drop-shadow( 1px 2px 2px rgba(185,185,185,1));}#my-svg [data-look="neo"].node .neo-line path{stroke:#999;filter:none;}#my-svg [data-look="neo"].node circle{stroke:url(#my-svg-gradient);filter:drop-shadow( 1px 2px 2px rgba(185,185,185,1));}#my-svg [data-look="neo"].node circle .state-start{fill:#000000;}#my-svg [data-look="neo"].icon-shape .icon{fill:url(#my-svg-gradient);filter:drop-shadow( 1px 2px 2px rgba(185,185,185,1));}#my-svg [data-look="neo"].icon-shape .icon-neo path{stroke:url(#my-svg-gradient);filter:drop-shadow( 1px 2px 2px rgba(185,185,185,1));}#my-svg :root{--mermaid-font-family:Arial,Helvetica,sans-serif;}</style><g><marker id="my-svg_flowchart-v2-pointEnd" class="marker flowchart-v2" viewBox="0 0 10 10" refX="5" refY="5" markerUnits="userSpaceOnUse" markerWidth="8" markerHeight="8" orient="auto"><path d="M 0 0 L 10 5 L 0 10 z" class="arrowMarkerPath" style="stroke-width: 1; stroke-dasharray: 1, 0;"/></marker><marker id="my-svg_flowchart-v2-pointStart" class="marker flowchart-v2" viewBox="0 0 10 10" refX="4.5" refY="5" markerUnits="userSpaceOnUse" markerWidth="8" markerHeight="8" orient="auto"><path d="M 0 5 L 10 10 L 10 0 z" class="arrowMarkerPath" style="stroke-width: 1; stroke-dasharray: 1, 0;"/></marker><marker id="my-svg_flowchart-v2-pointEnd-margin" class="marker flowchart-v2" viewBox="0 0 11.5 14" refX="11.5" refY="7" markerUnits="userSpaceOnUse" markerWidth="10.5" markerHeight="14" orient="auto"><path d="M 0 0 L 11.5 7 L 0 14 z" class="arrowMarkerPath" style="stroke-width: 0; stroke-dasharray: 1, 0;"/></marker><marker id="my-svg_flowchart-v2-pointStart-margin" class="marker flowchart-v2" viewBox="0 0 11.5 14" refX="1" refY="7" markerUnits="userSpaceOnUse" markerWidth="11.5" markerHeight="14" orient="auto"><polygon points="0,7 11.5,14 11.5,0" class="arrowMarkerPath" style="stroke-width: 0; stroke-dasharray: 1, 0;"/></marker><marker id="my-svg_flowchart-v2-circleEnd" class="marker flowchart-v2" viewBox="0 0 10 10" refX="11" refY="5" markerUnits="userSpaceOnUse" markerWidth="11" markerHeight="11" orient="auto"><circle cx="5" cy="5" r="5" class="arrowMarkerPath" style="stroke-width: 1; stroke-dasharray: 1, 0;"/></marker><marker id="my-svg_flowchart-v2-circleStart" class="marker flowchart-v2" viewBox="0 0 10 10" refX="-1" refY="5" markerUnits="userSpaceOnUse" markerWidth="11" markerHeight="11" orient="auto"><circle cx="5" cy="5" r="5" class="arrowMarkerPath" style="stroke-width: 1; stroke-dasharray: 1, 0;"/></marker><marker id="my-svg_flowchart-v2-circleEnd-margin" class="marker flowchart-v2" viewBox="0 0 10 10" refY="5" refX="12.25" markerUnits="userSpaceOnUse" markerWidth="14" markerHeight="14" orient="auto"><circle cx="5" cy="5" r="5" class="arrowMarkerPath" style="stroke-width: 0; stroke-dasharray: 1, 0;"/></marker><marker id="my-svg_flowchart-v2-circleStart-margin" class="marker flowchart-v2" viewBox="0 0 10 10" refX="-2" refY="5" markerUnits="userSpaceOnUse" markerWidth="14" markerHeight="14" orient="auto"><circle cx="5" cy="5" r="5" class="arrowMarkerPath" style="stroke-width: 0; stroke-dasharray: 1, 0;"/></marker><marker id="my-svg_flowchart-v2-crossEnd" class="marker cross flowchart-v2" viewBox="0 0 11 11" refX="12" refY="5.2" markerUnits="userSpaceOnUse" markerWidth="11" markerHeight="11" orient="auto"><path d="M 1,1 l 9,9 M 10,1 l -9,9" class="arrowMarkerPath" style="stroke-width: 2; stroke-dasharray: 1, 0;"/></marker><marker id="my-svg_flowchart-v2-crossStart" class="marker cross flowchart-v2" viewBox="0 0 11 11" refX="-1" refY="5.2" markerUnits="userSpaceOnUse" markerWidth="11" markerHeight="11" orient="auto"><path d="M 1,1 l 9,9 M 10,1 l -9,9" class="arrowMarkerPath" style="stroke-width: 2; stroke-dasharray: 1, 0;"/></marker><marker id="my-svg_flowchart-v2-crossEnd-margin" class="marker cross flowchart-v2" viewBox="0 0 15 15" refX="17.7" refY="7.5" markerUnits="userSpaceOnUse" markerWidth="12" markerHeight="12" orient="auto"><path d="M 1,1 L 14,14 M 1,14 L 14,1" class="arrowMarkerPath" style="stroke-width: 2.5;"/></marker><marker id="my-svg_flowchart-v2-crossStart-margin" class="marker cross flowchart-v2" viewBox="0 0 15 15" refX="-3.5" refY="7.5" markerUnits="userSpaceOnUse" markerWidth="12" markerHeight="12" orient="auto"><path d="M 1,1 L 14,14 M 1,14 L 14,1" class="arrowMarkerPath" style="stroke-width: 2.5; stroke-dasharray: 1, 0;"/></marker><g class="root"><g class="clusters"/><g class="edgePaths"><path d="M111.96,69.5L117.058,69.417C122.156,69.333,132.351,69.167,140.949,69.083C149.547,69,156.547,69,160.047,69L163.547,69" id="my-svg-L_usuario_host_0" class="edge-thickness-normal edge-pattern-solid edge-thickness-normal edge-pattern-solid flowchart-link" style=";" data-edge="true" data-et="edge" data-id="L_usuario_host_0" data-points="W3sieCI6MTExLjk2MDE4NTE5NzQ2NTUyLCJ5Ijo2OS41fSx7IngiOjE0Mi41NDY4NzUsInkiOjY5fSx7IngiOjE2Ny41NDY4NzUsInkiOjY5fV0=" data-look="classic" marker-end="url(#my-svg_flowchart-v2-pointEnd)"/><path d="M397.547,69L401.714,69C405.88,69,414.214,69,421.88,69C429.547,69,436.547,69,440.047,69L443.547,69" id="my-svg-L_host_compose_0" class="edge-thickness-normal edge-pattern-solid edge-thickness-normal edge-pattern-solid flowchart-link" style=";" data-edge="true" data-et="edge" data-id="L_host_compose_0" data-points="W3sieCI6Mzk3LjU0Njg3NSwieSI6Njl9LHsieCI6NDIyLjU0Njg3NSwieSI6Njl9LHsieCI6NDQ3LjU0Njg3NSwieSI6Njl9XQ==" data-look="classic" marker-end="url(#my-svg_flowchart-v2-pointEnd)"/><path d="M655.563,69L659.729,69C663.896,69,672.229,69,679.896,69C687.563,69,694.563,69,698.063,69L701.563,69" id="my-svg-L_compose_interno_0" class="edge-thickness-normal edge-pattern-solid edge-thickness-normal edge-pattern-solid flowchart-link" style=";" data-edge="true" data-et="edge" data-id="L_compose_interno_0" data-points="W3sieCI6NjU1LjU2MjUsInkiOjY5fSx7IngiOjY4MC41NjI1LCJ5Ijo2OX0seyJ4Ijo3MDUuNTYyNSwieSI6Njl9XQ==" data-look="classic" marker-end="url(#my-svg_flowchart-v2-pointEnd)"/><path d="M935.563,69L939.729,69C943.896,69,952.229,69,959.896,69C967.563,69,974.563,69,978.063,69L981.563,69" id="my-svg-L_interno_ftp_0" class="edge-thickness-normal edge-pattern-solid edge-thickness-normal edge-pattern-solid flowchart-link" style=";" data-edge="true" data-et="edge" data-id="L_interno_ftp_0" data-points="W3sieCI6OTM1LjU2MjUsInkiOjY5fSx7IngiOjk2MC41NjI1LCJ5Ijo2OX0seyJ4Ijo5ODUuNTYyNSwieSI6Njl9XQ==" data-look="classic" marker-end="url(#my-svg_flowchart-v2-pointEnd)"/><path d="M1148.219,69L1152.385,69C1156.552,69,1164.885,69,1172.636,69.07C1180.386,69.141,1187.553,69.281,1191.136,69.351L1194.72,69.422" id="my-svg-L_ftp_fim_0" class="edge-thickness-normal edge-pattern-solid edge-thickness-normal edge-pattern-solid flowchart-link" style=";" data-edge="true" data-et="edge" data-id="L_ftp_fim_0" data-points="W3sieCI6MTE0OC4yMTg3NSwieSI6Njl9LHsieCI6MTE3My4yMTg3NSwieSI6Njl9LHsieCI6MTE5OC43MTg3NTAwMDAwMDkzLCJ5Ijo2OS40OTk5OTk5OTk5OTk5OX1d" data-look="classic" marker-end="url(#my-svg_flowchart-v2-pointEnd)"/></g><g class="edgeLabels"><g class="edgeLabel"><g class="label" data-id="L_usuario_host_0" transform="translate(0, 0)"><foreignObject width="0" height="0"><div xmlns="http://www.w3.org/1999/xhtml" class="labelBkg" style="display: table-cell; white-space: nowrap; line-height: 1.5; max-width: 200px; text-align: center;"><span class="edgeLabel"></span></div></foreignObject></g></g><g class="edgeLabel"><g class="label" data-id="L_host_compose_0" transform="translate(0, 0)"><foreignObject width="0" height="0"><div xmlns="http://www.w3.org/1999/xhtml" class="labelBkg" style="display: table-cell; white-space: nowrap; line-height: 1.5; max-width: 200px; text-align: center;"><span class="edgeLabel"></span></div></foreignObject></g></g><g class="edgeLabel"><g class="label" data-id="L_compose_interno_0" transform="translate(0, 0)"><foreignObject width="0" height="0"><div xmlns="http://www.w3.org/1999/xhtml" class="labelBkg" style="display: table-cell; white-space: nowrap; line-height: 1.5; max-width: 200px; text-align: center;"><span class="edgeLabel"></span></div></foreignObject></g></g><g class="edgeLabel"><g class="label" data-id="L_interno_ftp_0" transform="translate(0, 0)"><foreignObject width="0" height="0"><div xmlns="http://www.w3.org/1999/xhtml" class="labelBkg" style="display: table-cell; white-space: nowrap; line-height: 1.5; max-width: 200px; text-align: center;"><span class="edgeLabel"></span></div></foreignObject></g></g><g class="edgeLabel"><g class="label" data-id="L_ftp_fim_0" transform="translate(0, 0)"><foreignObject width="0" height="0"><div xmlns="http://www.w3.org/1999/xhtml" class="labelBkg" style="display: table-cell; white-space: nowrap; line-height: 1.5; max-width: 200px; text-align: center;"><span class="edgeLabel"></span></div></foreignObject></g></g></g><g class="nodes"><g class="node default" id="my-svg-flowchart-usuario-0" data-look="classic" transform="translate(62.7734375, 69)"><g class="basic label-container"><rect x="-54.7734375" y="-5.205649218749997" width="109.546875" height="54" rx="19.389796875" ry="19.389796875" style=""/><circle cx="0" cy="-23.598569531249996" r="25.19578125" style=""/></g><g class="label" style="" transform="translate(-39.7734375, 9.794350781250003)"><rect/><foreignObject width="79.546875" height="24"><div xmlns="http://www.w3.org/1999/xhtml" style="display: table-cell; white-space: nowrap; line-height: 1.5; max-width: 200px; text-align: center;"><span class="nodeLabel markdown-node-label"><p>👤 Usuário</p></span></div></foreignObject></g></g><g class="node default" id="my-svg-flowchart-host-2" data-look="classic" transform="translate(282.546875, 69)"><g class="basic label-container"><rect x="-115" y="-61" width="230" height="122" rx="12" ry="12" style=""/><text x="-103" y="-45" class="console-glyph" style="font-family:monospace;font-weight:bold;font-size:14px;fill:#999">&gt;_</text></g><g class="label" style="" transform="translate(-100, -26)"><rect/><foreignObject width="200" height="72"><div xmlns="http://www.w3.org/1999/xhtml" style="display: table; white-space: break-spaces; line-height: 1.5; max-width: 200px; text-align: center; width: 200px;"><span class="nodeLabel markdown-node-label"><p>⌨️ deploy.sh, manage-user.sh<br />e validate.sh, no host</p></span></div></foreignObject></g></g><g class="node default" id="my-svg-flowchart-compose-4" data-look="classic" transform="translate(551.5546875, 69)"><rect class="basic label-container" style="" x="-104.0078125" y="-27" width="208.015625" height="54"/><g class="label" style="" transform="translate(-74.0078125, -12)"><rect/><foreignObject width="148.015625" height="24"><div xmlns="http://www.w3.org/1999/xhtml" style="display: table-cell; white-space: nowrap; line-height: 1.5; max-width: 200px; text-align: center;"><span class="nodeLabel markdown-node-label"><p>🐳 Docker Compose</p></span></div></foreignObject></g></g><g class="node default" id="my-svg-flowchart-interno-6" data-look="classic" transform="translate(820.5625, 69)"><g class="basic label-container"><rect x="-115" y="-61" width="230" height="122" rx="12" ry="12" style=""/><text x="-103" y="-45" class="console-glyph" style="font-family:monospace;font-weight:bold;font-size:14px;fill:#999">&gt;_</text></g><g class="label" style="" transform="translate(-100, -26)"><rect/><foreignObject width="200" height="72"><div xmlns="http://www.w3.org/1999/xhtml" style="display: table; white-space: break-spaces; line-height: 1.5; max-width: 200px; text-align: center; width: 200px;"><span class="nodeLabel markdown-node-label"><p>⌨️ entrypoint e allsafe-ftp-user<br />dentro do container</p></span></div></foreignObject></g></g><g class="node default" id="my-svg-flowchart-ftp-8" data-look="classic" transform="translate(1066.890625, 69)"><rect class="basic label-container" style="" x="-81.328125" y="-39" width="162.65625" height="78"/><g class="label" style="" transform="translate(-51.328125, -24)"><rect/><foreignObject width="102.65625" height="48"><div xmlns="http://www.w3.org/1999/xhtml" style="display: table-cell; white-space: nowrap; line-height: 1.5; max-width: 200px; text-align: center;"><span class="nodeLabel markdown-node-label"><p>⚙️ Pure-FTPd<br />allsafe-ftp</p></span></div></foreignObject></g></g><g class="node default" id="my-svg-flowchart-fim-10" data-look="classic" transform="translate(1284.1618576049805, 69)"><g class="basic label-container outer-path"><path d="M-66.453125 -19.5 C-24.812940968162778 -19.5, 16.827243063674445 -19.5, 66.453125 -19.5 C66.453125 -19.5, 66.453125 -19.5, 66.453125 -19.5 C66.75009904768204 -19.490476620315754, 67.04707309536407 -19.48095324063151, 67.7024942896239 -19.45993515863156 C68.16195526412231 -19.415611511004364, 68.62141623862072 -19.37128786337717, 68.94672965284786 -19.3399052695533 C69.42318015119199 -19.26287644790982, 69.89963064953609 -19.185847626266344, 70.18071825967675 -19.140403561325776 C70.59489144078057 -19.04587123547142, 71.00906462188438 -18.951338909617064, 71.39938938623538 -18.862249829261074 C71.67296198288899 -18.78105491858615, 71.94653457954259 -18.699860007911223, 72.5977352514606 -18.50658706670804 C72.83930336848162 -18.41768776661311, 73.08087148550264 -18.328788466518183, 73.7708315951478 -18.074876768247425 C74.20318921794437 -17.88348487406857, 74.63554684074096 -17.692092979889715, 74.91385791279238 -17.568892924097174 C75.32480984777327 -17.354499562844925, 75.73576178275415 -17.140106201592673, 76.02211726407678 -16.990714730406097 C76.38513482067144 -16.770651354270456, 76.7481523772661 -16.550587978134814, 77.0910555736057 -16.342718045390892 C77.32345687284429 -16.180604959532154, 77.55585817208286 -16.018491873673415, 78.11628034457871 -15.627565626425154 C78.35513963926317 -15.437081695227077, 78.59399893394763 -15.246597764028998, 79.09357870850187 -14.848196188198123 C79.29839361013538 -14.662188713639912, 79.50320851176888 -14.476181239081702, 80.01893473676799 -14.007812326905688 C80.25062625363734 -13.768571813510782, 80.48231777050668 -13.529331300115876, 80.88854594296865 -13.10986736009568 C81.15820875752412 -12.793106073869987, 81.4278715720796 -12.476344787644296, 81.69883890812658 -12.158051136245305 C81.97817214732275 -11.783770043504024, 82.25750538651894 -11.409488950762743, 82.44648396464063 -11.156274872382312 C82.66445599573296 -10.821411298938656, 82.8824280268253 -10.486547725495003, 83.12840887860425 -10.108655082055241 C83.34814088755488 -9.718498649884754, 83.5678728965055 -9.328342217714265, 83.7418114742735 -9.019496659696287 C83.87265110776063 -8.747805361240582, 84.00349074124776 -8.476114062784877, 84.28417114880834 -7.893275190886684 C84.39214756251359 -7.626571361452781, 84.50012397621883 -7.3598675320188764, 84.75325922997033 -6.734618561215508 C84.86437474184574 -6.399956343299377, 84.97549025372113 -6.065294125383246, 85.14714813421489 -5.548287939305138 C85.21765308986883 -5.279421986355569, 85.28815804552278 -5.010556033406, 85.46421928754556 -4.339158212148133 C85.55712600719373 -3.862101842596932, 85.6500327268419 -3.385045473045731, 85.70316977658177 -3.1121979531509023 C85.7595269502344 -2.6751028432838884, 85.81588412388702 -2.2380077334168744, 85.86301770250937 -1.872449005199798 C85.89224250431656 -1.4172491272173375, 85.92146730612376 -0.9620492492348772, 85.94310621591342 -0.6250057626472757 C85.94310621591342 -0.24286286844295524, 85.94310621591342 0.13928002576136522, 85.94310621591342 0.625005762647271 C85.92568662195502 0.8963299993924679, 85.90826702799663 1.1676542361376647, 85.86301770250937 1.8724490051997846 C85.80809158251003 2.298445145525408, 85.7531654625107 2.7244412858510305, 85.70316977658177 3.1121979531508885 C85.6447932971246 3.4119488372902183, 85.58641681766741 3.711699721429548, 85.46421928754556 4.339158212148129 C85.38716276777505 4.633008118540007, 85.31010624800454 4.926858024931886, 85.14714813421489 5.548287939305125 C85.03145893067595 5.89672538779299, 84.91576972713702 6.245162836280854, 84.75325922997033 6.734618561215495 C84.6265704592716 7.047542274202089, 84.49988168857288 7.360465987188682, 84.28417114880834 7.893275190886679 C84.16576287626444 8.139152502355268, 84.04735460372054 8.385029813823857, 83.7418114742735 9.019496659696284 C83.50108853906268 9.446924607003515, 83.26036560385185 9.874352554310747, 83.12840887860425 10.108655082055236 C82.9848631348525 10.329179891887268, 82.84131739110076 10.549704701719302, 82.44648396464065 11.156274872382301 C82.18436877778294 11.507485343586882, 81.92225359092521 11.858695814791464, 81.69883890812659 12.158051136245302 C81.46818317762819 12.428992481971587, 81.23752744712979 12.699933827697873, 80.88854594296866 13.10986736009567 C80.58963479802802 13.418517658308295, 80.29072365308735 13.727167956520917, 80.01893473676799 14.007812326905684 C79.66316404596802 14.330913855113575, 79.30739335516803 14.654015383321465, 79.0935787085019 14.848196188198111 C78.83763571685981 15.052303913103628, 78.5816927252177 15.256411638009144, 78.11628034457871 15.627565626425152 C77.71002086469703 15.910954652901175, 77.30376138481536 16.194343679377198, 77.0910555736057 16.34271804539089 C76.84842997923742 16.4897991065232, 76.60580438486913 16.636880167655512, 76.02211726407678 16.990714730406093 C75.67835582565615 17.170054852640423, 75.33459438723553 17.349394974874755, 74.91385791279238 17.56889292409717 C74.60315605249767 17.70643142100642, 74.29245419220295 17.843969917915672, 73.7708315951478 18.07487676824742 C73.4617222691054 18.188631857606314, 73.15261294306299 18.302386946965203, 72.59773525146062 18.506587066708033 C72.31895389173059 18.589327910922687, 72.04017253200057 18.672068755137342, 71.39938938623541 18.86224982926107 C70.95592308724335 18.96346811811796, 70.51245678825128 19.06468640697485, 70.18071825967677 19.140403561325773 C69.91039384603432 19.184107516126346, 69.64006943239187 19.22781147092692, 68.94672965284788 19.3399052695533 C68.58853145647636 19.374460218760902, 68.23033326010484 19.4090151679685, 67.7024942896239 19.45993515863156 C67.32054628173519 19.472183487827852, 66.93859827384647 19.48443181702415, 66.453125 19.5 C66.453125 19.5, 66.453125 19.5, 66.453125 19.5 C28.42682181897166 19.5, -9.599481362056679 19.5, -66.453125 19.5 C-66.79447604850533 19.489053536273943, -67.13582709701068 19.478107072547886, -67.7024942896239 19.45993515863156 C-68.14463033395367 19.417282826181456, -68.58676637828344 19.374630493731352, -68.94672965284786 19.3399052695533 C-69.43032564122137 19.26172122049597, -69.9139216295949 19.18353717143864, -70.18071825967675 19.140403561325773 C-70.5231886958349 19.062236919101124, -70.86565913199306 18.98407027687648, -71.39938938623538 18.862249829261074 C-71.81004249631893 18.74037014175044, -72.22069560640247 18.618490454239808, -72.59773525146059 18.506587066708043 C-72.95758087307495 18.374160551577496, -73.31742649468931 18.24173403644695, -73.7708315951478 18.074876768247425 C-74.18030968276503 17.893612965595175, -74.58978777038224 17.71234916294292, -74.91385791279238 17.568892924097174 C-75.22186139624105 17.408207704067646, -75.52986487968973 17.24752248403812, -76.02211726407678 16.990714730406097 C-76.3539891419762 16.789532047727832, -76.68586101987563 16.588349365049567, -77.09105557360569 16.3427180453909 C-77.36451294286658 16.151966022373223, -77.63797031212748 15.961213999355547, -78.11628034457871 15.627565626425156 C-78.41840802300185 15.386626842837885, -78.72053570142498 15.145688059250613, -79.09357870850187 14.848196188198125 C-79.30466982138263 14.656488824644597, -79.51576093426341 14.46478146109107, -80.01893473676797 14.007812326905697 C-80.30562968925976 13.711776250364572, -80.59232464175156 13.415740173823448, -80.88854594296865 13.109867360095677 C-81.21135992551845 12.730671687556717, -81.53417390806824 12.351476015017758, -81.69883890812658 12.158051136245307 C-81.89267999969678 11.898321732827954, -82.086521091267 11.638592329410601, -82.44648396464063 11.156274872382316 C-82.6526504676145 10.839547760356778, -82.85881697058839 10.52282064833124, -83.12840887860425 10.108655082055249 C-83.35404507545479 9.708015166404607, -83.57968127230534 9.307375250753967, -83.7418114742735 9.019496659696289 C-83.86906965804178 8.755242318212535, -83.99632784181006 8.490987976728778, -84.28417114880834 7.893275190886686 C-84.43687685263845 7.5160891500623785, -84.58958255646856 7.138903109238072, -84.75325922997033 6.73461856121551 C-84.86747828991555 6.390608950996301, -84.98169734986078 6.0465993407770915, -85.14714813421489 5.5482879393051325 C-85.21799118488242 5.278132683537415, -85.28883423554997 5.007977427769698, -85.46421928754556 4.339158212148136 C-85.51478690029711 4.079504208137626, -85.56535451304867 3.8198502041271163, -85.70316977658177 3.112197953150904 C-85.76547849643951 2.628943826182699, -85.82778721629727 2.1456896992144943, -85.86301770250937 1.872449005199809 C-85.88679622499669 1.5020793237820278, -85.91057474748399 1.1317096423642465, -85.94310621591342 0.6250057626472781 C-85.94310621591342 0.30423503142525676, -85.94310621591342 -0.016535699796764614, -85.94310621591342 -0.6250057626472687 C-85.91224259328729 -1.1057315977169775, -85.88137897066116 -1.5864574327866863, -85.86301770250937 -1.8724490051997822 C-85.82779489657068 -2.145630132530442, -85.792572090632 -2.418811259861102, -85.70316977658177 -3.112197953150895 C-85.61437555576443 -3.568137510382758, -85.52558133494708 -4.024077067614621, -85.46421928754556 -4.339158212148126 C-85.39694928164958 -4.595687899634486, -85.3296792757536 -4.852217587120847, -85.14714813421489 -5.548287939305123 C-85.00185219652671 -5.98589615385803, -84.85655625883854 -6.423504368410936, -84.75325922997033 -6.734618561215485 C-84.60127870853103 -7.110013387514049, -84.44929818709173 -7.485408213812613, -84.28417114880834 -7.893275190886676 C-84.15207997884633 -8.167565331611065, -84.01998880888432 -8.441855472335455, -83.7418114742735 -9.019496659696282 C-83.60912653805421 -9.255092199760364, -83.4764416018349 -9.490687739824445, -83.12840887860425 -10.108655082055243 C-82.95077635070086 -10.381546345927342, -82.7731438227975 -10.65443760979944, -82.44648396464063 -11.156274872382308 C-82.29488803768776 -11.359399603826109, -82.14329211073488 -11.56252433526991, -81.69883890812659 -12.158051136245302 C-81.39252212330126 -12.517868261619956, -81.08620533847593 -12.87768538699461, -80.88854594296866 -13.10986736009567 C-80.69898787228531 -13.30560163108326, -80.50942980160197 -13.501335902070847, -80.01893473676799 -14.007812326905677 C-79.65548708302487 -14.33788586973722, -79.29203942928176 -14.667959412568761, -79.0935787085019 -14.848196188198107 C-78.8933033412062 -15.007910464065068, -78.69302797391052 -15.167624739932029, -78.11628034457871 -15.627565626425149 C-77.80920979038359 -15.84176475216162, -77.50213923618847 -16.05596387789809, -77.09105557360571 -16.342718045390885 C-76.76793953231298 -16.538592888463164, -76.44482349102024 -16.734467731535446, -76.02211726407678 -16.99071473040609 C-75.65337240413547 -17.183088687645125, -75.28462754419415 -17.375462644884156, -74.9138579127924 -17.56889292409717 C-74.55577804967173 -17.727404257438952, -74.19769818655107 -17.88591559078073, -73.77083159514781 -18.07487676824742 C-73.42291555099828 -18.202913088595107, -73.07499950684874 -18.33094940894279, -72.59773525146062 -18.506587066708033 C-72.34824794406514 -18.58063358995741, -72.09876063666965 -18.65468011320679, -71.39938938623541 -18.862249829261067 C-71.00018052685711 -18.9533666463329, -70.6009716674788 -19.044483463404735, -70.18071825967677 -19.140403561325773 C-69.70882291153268 -19.216695941610627, -69.23692756338859 -19.292988321895486, -68.94672965284788 -19.3399052695533 C-68.61046860115329 -19.372343968797193, -68.2742075494587 -19.40478266804109, -67.7024942896239 -19.45993515863156 C-67.23500218185009 -19.47492672060968, -66.76751007407627 -19.489918282587798, -66.453125 -19.5 C-66.453125 -19.5, -66.453125 -19.5, -66.453125 -19.5" stroke="none" stroke-width="0" fill="#eee" style=""/><path d="M-66.453125 -19.5 C-35.5960724306004 -19.5, -4.739019861200809 -19.5, 66.453125 -19.5 M-66.453125 -19.5 C-15.14164012200218 -19.5, 36.16984475599564 -19.5, 66.453125 -19.5 M66.453125 -19.5 C66.453125 -19.5, 66.453125 -19.5, 66.453125 -19.5 M66.453125 -19.5 C66.453125 -19.5, 66.453125 -19.5, 66.453125 -19.5 M66.453125 -19.5 C66.71218546621311 -19.491692435079152, 66.97124593242621 -19.483384870158307, 67.7024942896239 -19.45993515863156 M66.453125 -19.5 C66.79104400602552 -19.489163595196207, 67.12896301205103 -19.478327190392413, 67.7024942896239 -19.45993515863156 M67.7024942896239 -19.45993515863156 C68.12968555767705 -19.418724530775137, 68.55687682573021 -19.377513902918718, 68.94672965284786 -19.3399052695533 M67.7024942896239 -19.45993515863156 C68.16237615997532 -19.415570907687624, 68.62225803032676 -19.37120665674369, 68.94672965284786 -19.3399052695533 M68.94672965284786 -19.3399052695533 C69.4323228924117 -19.261398320412432, 69.91791613197556 -19.182891371271566, 70.18071825967675 -19.140403561325776 M68.94672965284786 -19.3399052695533 C69.38588770216744 -19.268905601860848, 69.82504575148701 -19.197905934168396, 70.18071825967675 -19.140403561325776 M70.18071825967675 -19.140403561325776 C70.5909740835782 -19.046765346689714, 71.00122990747965 -18.953127132053652, 71.39938938623538 -18.862249829261074 M70.18071825967675 -19.140403561325776 C70.57528062960058 -19.05034727515075, 70.96984299952442 -18.96029098897572, 71.39938938623538 -18.862249829261074 M71.39938938623538 -18.862249829261074 C71.82617581856073 -18.735581856394614, 72.25296225088606 -18.608913883528153, 72.5977352514606 -18.50658706670804 M71.39938938623538 -18.862249829261074 C71.64989561755452 -18.7879008947396, 71.90040184887364 -18.713551960218123, 72.5977352514606 -18.50658706670804 M72.5977352514606 -18.50658706670804 C73.0315424365318 -18.346942012532185, 73.46534962160297 -18.187296958356328, 73.7708315951478 -18.074876768247425 M72.5977352514606 -18.50658706670804 C72.99634299471575 -18.359895732500558, 73.3949507379709 -18.213204398293076, 73.7708315951478 -18.074876768247425 M73.7708315951478 -18.074876768247425 C74.1302859199074 -17.91575700151004, 74.489740244667 -17.756637234772658, 74.91385791279238 -17.568892924097174 M73.7708315951478 -18.074876768247425 C74.20375868428138 -17.8832327882138, 74.63668577341495 -17.691588808180175, 74.91385791279238 -17.568892924097174 M74.91385791279238 -17.568892924097174 C75.1722884787659 -17.43406986336146, 75.43071904473943 -17.299246802625753, 76.02211726407678 -16.990714730406097 M74.91385791279238 -17.568892924097174 C75.29309716791842 -17.371044047612255, 75.67233642304446 -17.173195171127336, 76.02211726407678 -16.990714730406097 M76.02211726407678 -16.990714730406097 C76.32252595557222 -16.80860521622414, 76.62293464706764 -16.626495702042185, 77.0910555736057 -16.342718045390892 M76.02211726407678 -16.990714730406097 C76.37538617139829 -16.776561042749265, 76.7286550787198 -16.56240735509243, 77.0910555736057 -16.342718045390892 M77.0910555736057 -16.342718045390892 C77.31767804632065 -16.184636018753668, 77.54430051903562 -16.026553992116444, 78.11628034457871 -15.627565626425154 M77.0910555736057 -16.342718045390892 C77.32360604978058 -16.180500900159156, 77.55615652595547 -16.018283754927417, 78.11628034457871 -15.627565626425154 M78.11628034457871 -15.627565626425154 C78.38417548674157 -15.413926379539404, 78.65207062890443 -15.200287132653656, 79.09357870850187 -14.848196188198123 M78.11628034457871 -15.627565626425154 C78.3601353106233 -15.433097780257771, 78.60399027666789 -15.238629934090389, 79.09357870850187 -14.848196188198123 M79.09357870850187 -14.848196188198123 C79.4348375978091 -14.538273894144718, 79.77609648711635 -14.228351600091312, 80.01893473676799 -14.007812326905688 M79.09357870850187 -14.848196188198123 C79.37025661842185 -14.596924630905146, 79.64693452834182 -14.34565307361217, 80.01893473676799 -14.007812326905688 M80.01893473676799 -14.007812326905688 C80.25608530784756 -13.762934891842042, 80.49323587892714 -13.518057456778397, 80.88854594296865 -13.10986736009568 M80.01893473676799 -14.007812326905688 C80.32482660674638 -13.691953856963403, 80.63071847672478 -13.376095387021119, 80.88854594296865 -13.10986736009568 M80.88854594296865 -13.10986736009568 C81.15908020026824 -12.792082427636256, 81.42961445756782 -12.47429749517683, 81.69883890812658 -12.158051136245305 M80.88854594296865 -13.10986736009568 C81.10138646117315 -12.859852776444093, 81.31422697937766 -12.609838192792505, 81.69883890812658 -12.158051136245305 M81.69883890812658 -12.158051136245305 C81.95049061934823 -11.820860769150814, 82.20214233056988 -11.483670402056323, 82.44648396464063 -11.156274872382312 M81.69883890812658 -12.158051136245305 C81.97314860173961 -11.790501136931034, 82.24745829535263 -11.422951137616762, 82.44648396464063 -11.156274872382312 M82.44648396464063 -11.156274872382312 C82.65862218025373 -10.830373606113561, 82.87076039586682 -10.504472339844812, 83.12840887860425 -10.108655082055241 M82.44648396464063 -11.156274872382312 C82.64125293460191 -10.857057431730283, 82.83602190456318 -10.557839991078254, 83.12840887860425 -10.108655082055241 M83.12840887860425 -10.108655082055241 C83.2615104003744 -9.872319852161743, 83.39461192214456 -9.635984622268246, 83.7418114742735 -9.019496659696287 M83.12840887860425 -10.108655082055241 C83.3716406763593 -9.676772395250836, 83.61487247411436 -9.24488970844643, 83.7418114742735 -9.019496659696287 M83.7418114742735 -9.019496659696287 C83.93776269436836 -8.612599758484869, 84.13371391446321 -8.20570285727345, 84.28417114880834 -7.893275190886684 M83.7418114742735 -9.019496659696287 C83.88963110733806 -8.712546028804248, 84.03745074040263 -8.405595397912208, 84.28417114880834 -7.893275190886684 M84.28417114880834 -7.893275190886684 C84.40924177624746 -7.584348323036002, 84.53431240368656 -7.275421455185319, 84.75325922997033 -6.734618561215508 M84.28417114880834 -7.893275190886684 C84.45907200202141 -7.461266701972434, 84.63397285523449 -7.029258213058183, 84.75325922997033 -6.734618561215508 M84.75325922997033 -6.734618561215508 C84.88389774967001 -6.341156154301516, 85.0145362693697 -5.947693747387525, 85.14714813421489 -5.548287939305138 M84.75325922997033 -6.734618561215508 C84.89740404564711 -6.300477342754551, 85.04154886132388 -5.866336124293593, 85.14714813421489 -5.548287939305138 M85.14714813421489 -5.548287939305138 C85.2309814761684 -5.228595072836151, 85.31481481812192 -4.908902206367164, 85.46421928754556 -4.339158212148133 M85.14714813421489 -5.548287939305138 C85.2202900113306 -5.26936626197286, 85.2934318884463 -4.990444584640582, 85.46421928754556 -4.339158212148133 M85.46421928754556 -4.339158212148133 C85.54009855407472 -3.9495342156095448, 85.61597782060389 -3.5599102190709564, 85.70316977658177 -3.1121979531509023 M85.46421928754556 -4.339158212148133 C85.54220770131202 -3.9387041903144184, 85.62019611507849 -3.5382501684807033, 85.70316977658177 -3.1121979531509023 M85.70316977658177 -3.1121979531509023 C85.74739842098913 -2.7691693210611374, 85.7916270653965 -2.4261406889713726, 85.86301770250937 -1.872449005199798 M85.70316977658177 -3.1121979531509023 C85.76616908275945 -2.6235877750569827, 85.82916838893713 -2.134977596963063, 85.86301770250937 -1.872449005199798 M85.86301770250937 -1.872449005199798 C85.89484614211379 -1.376695366906798, 85.92667458171823 -0.8809417286137984, 85.94310621591342 -0.6250057626472757 M85.86301770250937 -1.872449005199798 C85.88379417022485 -1.5488387500683432, 85.90457063794032 -1.2252284949368883, 85.94310621591342 -0.6250057626472757 M85.94310621591342 -0.6250057626472757 C85.94310621591342 -0.32984230459803265, 85.94310621591342 -0.03467884654878961, 85.94310621591342 0.625005762647271 M85.94310621591342 -0.6250057626472757 C85.94310621591342 -0.31129172009471867, 85.94310621591342 0.002422322457838355, 85.94310621591342 0.625005762647271 M85.94310621591342 0.625005762647271 C85.91248868345156 1.1018985447682272, 85.88187115098968 1.578791326889183, 85.86301770250937 1.8724490051997846 M85.94310621591342 0.625005762647271 C85.92682765898381 0.8785574266405376, 85.9105491020542 1.132109090633804, 85.86301770250937 1.8724490051997846 M85.86301770250937 1.8724490051997846 C85.81995417828166 2.2064411952551266, 85.77689065405396 2.540433385310468, 85.70316977658177 3.1121979531508885 M85.86301770250937 1.8724490051997846 C85.8011248118638 2.3524780429130656, 85.73923192121825 2.832507080626347, 85.70316977658177 3.1121979531508885 M85.70316977658177 3.1121979531508885 C85.62281066592051 3.524825002492444, 85.54245155525925 3.937452051833999, 85.46421928754556 4.339158212148129 M85.70316977658177 3.1121979531508885 C85.61298359334947 3.5752849431922242, 85.52279741011716 4.0383719332335595, 85.46421928754556 4.339158212148129 M85.46421928754556 4.339158212148129 C85.39278663237181 4.611561885434261, 85.32135397719804 4.883965558720394, 85.14714813421489 5.548287939305125 M85.46421928754556 4.339158212148129 C85.34660015079943 4.78769095701746, 85.2289810140533 5.236223701886793, 85.14714813421489 5.548287939305125 M85.14714813421489 5.548287939305125 C85.04863978709598 5.844979385653596, 84.95013143997707 6.141670832002066, 84.75325922997033 6.734618561215495 M85.14714813421489 5.548287939305125 C85.01062766684872 5.959465835429462, 84.87410719948255 6.3706437315538, 84.75325922997033 6.734618561215495 M84.75325922997033 6.734618561215495 C84.58033664356091 7.161740692877519, 84.4074140571515 7.588862824539544, 84.28417114880834 7.893275190886679 M84.75325922997033 6.734618561215495 C84.603299252575 7.105022604660881, 84.45333927517967 7.475426648106268, 84.28417114880834 7.893275190886679 M84.28417114880834 7.893275190886679 C84.11114202528196 8.252573868119368, 83.93811290175557 8.611872545352057, 83.7418114742735 9.019496659696284 M84.28417114880834 7.893275190886679 C84.1285155047137 8.21649746634644, 83.97285986061907 8.5397197418062, 83.7418114742735 9.019496659696284 M83.7418114742735 9.019496659696284 C83.58385226211391 9.299969235990336, 83.4258930499543 9.580441812284388, 83.12840887860425 10.108655082055236 M83.7418114742735 9.019496659696284 C83.56981638996254 9.324891348281241, 83.39782130565159 9.630286036866199, 83.12840887860425 10.108655082055236 M83.12840887860425 10.108655082055236 C82.88462889040795 10.483166608017417, 82.64084890221166 10.857678133979595, 82.44648396464065 11.156274872382301 M83.12840887860425 10.108655082055236 C82.97471039544254 10.344777226013235, 82.82101191228082 10.580899369971235, 82.44648396464065 11.156274872382301 M82.44648396464065 11.156274872382301 C82.1504393922413 11.552947629182064, 81.85439481984194 11.949620385981826, 81.69883890812659 12.158051136245302 M82.44648396464065 11.156274872382301 C82.27056163789972 11.391994763361485, 82.09463931115879 11.627714654340668, 81.69883890812659 12.158051136245302 M81.69883890812659 12.158051136245302 C81.5200179813927 12.368104371985915, 81.3411970546588 12.57815760772653, 80.88854594296866 13.10986736009567 M81.69883890812659 12.158051136245302 C81.43028153079267 12.473513913009395, 81.16172415345875 12.788976689773488, 80.88854594296866 13.10986736009567 M80.88854594296866 13.10986736009567 C80.64180396581101 13.364648709404015, 80.39506198865335 13.619430058712362, 80.01893473676799 14.007812326905684 M80.88854594296866 13.10986736009567 C80.64955792790676 13.356642106928035, 80.41056991284484 13.6034168537604, 80.01893473676799 14.007812326905684 M80.01893473676799 14.007812326905684 C79.8321946262805 14.177404754377855, 79.645454515793 14.346997181850027, 79.0935787085019 14.848196188198111 M80.01893473676799 14.007812326905684 C79.81608837377047 14.19203202675937, 79.61324201077295 14.376251726613056, 79.0935787085019 14.848196188198111 M79.0935787085019 14.848196188198111 C78.8496433725489 15.042728127228715, 78.6057080365959 15.237260066259319, 78.11628034457871 15.627565626425152 M79.0935787085019 14.848196188198111 C78.86434199582239 15.031006366314902, 78.63510528314288 15.21381654443169, 78.11628034457871 15.627565626425152 M78.11628034457871 15.627565626425152 C77.85088935572647 15.812690891657738, 77.58549836687422 15.997816156890323, 77.0910555736057 16.34271804539089 M78.11628034457871 15.627565626425152 C77.82944165712556 15.827651877745824, 77.54260296967239 16.027738129066496, 77.0910555736057 16.34271804539089 M77.0910555736057 16.34271804539089 C76.79315102267991 16.52330953484357, 76.49524647175411 16.703901024296254, 76.02211726407678 16.990714730406093 M77.0910555736057 16.34271804539089 C76.83136926317258 16.500141412861602, 76.57168295273945 16.657564780332315, 76.02211726407678 16.990714730406093 M76.02211726407678 16.990714730406093 C75.78576832086411 17.114017822691427, 75.54941937765142 17.237320914976756, 74.91385791279238 17.56889292409717 M76.02211726407678 16.990714730406093 C75.68667538614261 17.16571454326357, 75.35123350820845 17.340714356121048, 74.91385791279238 17.56889292409717 M74.91385791279238 17.56889292409717 C74.5252814309655 17.74090420589014, 74.13670494913863 17.912915487683104, 73.7708315951478 18.07487676824742 M74.91385791279238 17.56889292409717 C74.51687926194893 17.74462359687229, 74.11990061110548 17.92035426964741, 73.7708315951478 18.07487676824742 M73.7708315951478 18.07487676824742 C73.44182840101013 18.195952984962272, 73.11282520687247 18.31702920167712, 72.59773525146062 18.506587066708033 M73.7708315951478 18.07487676824742 C73.53559625922426 18.16144554635889, 73.30036092330072 18.248014324470365, 72.59773525146062 18.506587066708033 M72.59773525146062 18.506587066708033 C72.18765576536468 18.62829650563016, 71.77757627926876 18.750005944552285, 71.39938938623541 18.86224982926107 M72.59773525146062 18.506587066708033 C72.29775408625315 18.595619901908343, 71.99777292104568 18.68465273710865, 71.39938938623541 18.86224982926107 M71.39938938623541 18.86224982926107 C71.12817012786763 18.92415385511245, 70.85695086949985 18.986057880963834, 70.18071825967677 19.140403561325773 M71.39938938623541 18.86224982926107 C71.05489647415249 18.940878088417655, 70.71040356206957 19.019506347574243, 70.18071825967677 19.140403561325773 M70.18071825967677 19.140403561325773 C69.85233497912932 19.193494023474308, 69.52395169858187 19.246584485622847, 68.94672965284788 19.3399052695533 M70.18071825967677 19.140403561325773 C69.91040307423923 19.18410602418174, 69.6400878888017 19.22780848703771, 68.94672965284788 19.3399052695533 M68.94672965284788 19.3399052695533 C68.5916113549097 19.374163104663157, 68.23649305697151 19.408420939773013, 67.7024942896239 19.45993515863156 M68.94672965284788 19.3399052695533 C68.52770879938427 19.380327707340626, 68.10868794592066 19.420750145127954, 67.7024942896239 19.45993515863156 M67.7024942896239 19.45993515863156 C67.35943791543798 19.47093630883298, 67.01638154125204 19.481937459034395, 66.453125 19.5 M67.7024942896239 19.45993515863156 C67.23546539286427 19.47491186633404, 66.76843649610464 19.48988857403652, 66.453125 19.5 M66.453125 19.5 C66.453125 19.5, 66.453125 19.5, 66.453125 19.5 M66.453125 19.5 C66.453125 19.5, 66.453125 19.5, 66.453125 19.5 M66.453125 19.5 C15.568806504757987 19.5, -35.315511990484026 19.5, -66.453125 19.5 M66.453125 19.5 C27.806709982654844 19.5, -10.839705034690311 19.5, -66.453125 19.5 M-66.453125 19.5 C-66.92212076453276 19.48496021867631, -67.39111652906551 19.469920437352624, -67.7024942896239 19.45993515863156 M-66.453125 19.5 C-66.9379517312386 19.48445255038716, -67.4227784624772 19.468905100774325, -67.7024942896239 19.45993515863156 M-67.7024942896239 19.45993515863156 C-68.07789043455318 19.42372114401015, -68.45328657948247 19.387507129388737, -68.94672965284786 19.3399052695533 M-67.7024942896239 19.45993515863156 C-68.16223444530542 19.415584578731394, -68.62197460098693 19.37123399883123, -68.94672965284786 19.3399052695533 M-68.94672965284786 19.3399052695533 C-69.31819459720872 19.279849698102705, -69.68965954156957 19.219794126652108, -70.18071825967675 19.140403561325773 M-68.94672965284786 19.3399052695533 C-69.33939659015027 19.276421924307826, -69.73206352745267 19.21293857906235, -70.18071825967675 19.140403561325773 M-70.18071825967675 19.140403561325773 C-70.51599257445082 19.063879386847965, -70.85126688922489 18.987355212370154, -71.39938938623538 18.862249829261074 M-70.18071825967675 19.140403561325773 C-70.57639140240501 19.050093748506608, -70.97206454513326 18.95978393568744, -71.39938938623538 18.862249829261074 M-71.39938938623538 18.862249829261074 C-71.72857390893786 18.7645495908478, -72.05775843164034 18.666849352434525, -72.59773525146059 18.506587066708043 M-71.39938938623538 18.862249829261074 C-71.71442685542198 18.768748362071914, -72.02946432460857 18.675246894882758, -72.59773525146059 18.506587066708043 M-72.59773525146059 18.506587066708043 C-72.97205240584914 18.368834893743212, -73.3463695602377 18.231082720778378, -73.7708315951478 18.074876768247425 M-72.59773525146059 18.506587066708043 C-73.0133022938321 18.3536545536557, -73.42886933620359 18.20072204060336, -73.7708315951478 18.074876768247425 M-73.7708315951478 18.074876768247425 C-74.16699897062585 17.89950522301094, -74.5631663461039 17.724133677774454, -74.91385791279238 17.568892924097174 M-73.7708315951478 18.074876768247425 C-74.03499855764488 17.957937890184485, -74.29916552014197 17.840999012121546, -74.91385791279238 17.568892924097174 M-74.91385791279238 17.568892924097174 C-75.2530080814932 17.391958498322005, -75.59215825019403 17.21502407254684, -76.02211726407678 16.990714730406097 M-74.91385791279238 17.568892924097174 C-75.25874964768549 17.38896312691714, -75.60364138257859 17.209033329737107, -76.02211726407678 16.990714730406097 M-76.02211726407678 16.990714730406097 C-76.35114256812591 16.79125765752421, -76.68016787217502 16.59180058464232, -77.09105557360569 16.3427180453909 M-76.02211726407678 16.990714730406097 C-76.27933996269664 16.834784818894377, -76.5365626613165 16.678854907382654, -77.09105557360569 16.3427180453909 M-77.09105557360569 16.3427180453909 C-77.43430933908101 16.103279077811333, -77.77756310455634 15.863840110231767, -78.11628034457871 15.627565626425156 M-77.09105557360569 16.3427180453909 C-77.31279572528892 16.188041714553137, -77.53453587697214 16.033365383715378, -78.11628034457871 15.627565626425156 M-78.11628034457871 15.627565626425156 C-78.50188219000195 15.320058415996176, -78.88748403542519 15.012551205567197, -79.09357870850187 14.848196188198125 M-78.11628034457871 15.627565626425156 C-78.3953328091268 15.405028711845999, -78.6743852736749 15.182491797266843, -79.09357870850187 14.848196188198125 M-79.09357870850187 14.848196188198125 C-79.42902254703458 14.543554969400336, -79.76446638556727 14.23891375060255, -80.01893473676797 14.007812326905697 M-79.09357870850187 14.848196188198125 C-79.27887611477709 14.679913986519683, -79.4641735210523 14.51163178484124, -80.01893473676797 14.007812326905697 M-80.01893473676797 14.007812326905697 C-80.295441517008 13.722296374679011, -80.57194829724804 13.436780422452326, -80.88854594296865 13.109867360095677 M-80.01893473676797 14.007812326905697 C-80.25078113389343 13.768411886930465, -80.48262753101886 13.529011446955234, -80.88854594296865 13.109867360095677 M-80.88854594296865 13.109867360095677 C-81.08434860109702 12.879866416371213, -81.2801512592254 12.649865472646747, -81.69883890812658 12.158051136245307 M-80.88854594296865 13.109867360095677 C-81.06129279602384 12.906949076922649, -81.23403964907904 12.704030793749618, -81.69883890812658 12.158051136245307 M-81.69883890812658 12.158051136245307 C-81.99028135476131 11.767544808707866, -82.28172380139603 11.377038481170425, -82.44648396464063 11.156274872382316 M-81.69883890812658 12.158051136245307 C-81.92235052807932 11.858565927836098, -82.14586214803207 11.55908071942689, -82.44648396464063 11.156274872382316 M-82.44648396464063 11.156274872382316 C-82.67109740797451 10.811208306266746, -82.8957108513084 10.466141740151176, -83.12840887860425 10.108655082055249 M-82.44648396464063 11.156274872382316 C-82.61724444487987 10.893940919125518, -82.7880049251191 10.631606965868722, -83.12840887860425 10.108655082055249 M-83.12840887860425 10.108655082055249 C-83.29146798558045 9.819127126093957, -83.45452709255667 9.529599170132666, -83.7418114742735 9.019496659696289 M-83.12840887860425 10.108655082055249 C-83.31919970562879 9.769886649006988, -83.50999053265333 9.43111821595873, -83.7418114742735 9.019496659696289 M-83.7418114742735 9.019496659696289 C-83.91379760850387 8.662363772053173, -84.08578374273424 8.305230884410056, -84.28417114880834 7.893275190886686 M-83.7418114742735 9.019496659696289 C-83.85594242561226 8.782501297230207, -83.970073376951 8.545505934764126, -84.28417114880834 7.893275190886686 M-84.28417114880834 7.893275190886686 C-84.41965892916235 7.558617753934229, -84.55514670951638 7.223960316981772, -84.75325922997033 6.73461856121551 M-84.28417114880834 7.893275190886686 C-84.38274548645977 7.649794671082493, -84.4813198241112 7.4063141512783, -84.75325922997033 6.73461856121551 M-84.75325922997033 6.73461856121551 C-84.84373267340361 6.462126964580073, -84.9342061168369 6.1896353679446365, -85.14714813421489 5.5482879393051325 M-84.75325922997033 6.73461856121551 C-84.89665305862408 6.302739196014336, -85.04004688727785 5.8708598308131625, -85.14714813421489 5.5482879393051325 M-85.14714813421489 5.5482879393051325 C-85.22673770511916 5.244778411108879, -85.30632727602345 4.941268882912625, -85.46421928754556 4.339158212148136 M-85.14714813421489 5.5482879393051325 C-85.22996234967881 5.232481443833139, -85.31277656514276 4.916674948361146, -85.46421928754556 4.339158212148136 M-85.46421928754556 4.339158212148136 C-85.53195089091078 3.9913707439471993, -85.59968249427598 3.6435832757462627, -85.70316977658177 3.112197953150904 M-85.46421928754556 4.339158212148136 C-85.5478888916532 3.909532478632483, -85.63155849576084 3.4799067451168297, -85.70316977658177 3.112197953150904 M-85.70316977658177 3.112197953150904 C-85.7474657104759 2.7686474370896312, -85.79176164437001 2.425096921028359, -85.86301770250937 1.872449005199809 M-85.70316977658177 3.112197953150904 C-85.74052643727904 2.8224670696899765, -85.7778830979763 2.532736186229049, -85.86301770250937 1.872449005199809 M-85.86301770250937 1.872449005199809 C-85.89083970793887 1.4390988131167002, -85.91866171336838 1.0057486210335913, -85.94310621591342 0.6250057626472781 M-85.86301770250937 1.872449005199809 C-85.88806837428456 1.482264571762955, -85.91311904605975 1.092080138326101, -85.94310621591342 0.6250057626472781 M-85.94310621591342 0.6250057626472781 C-85.94310621591342 0.18735467900055103, -85.94310621591342 -0.2502964046461761, -85.94310621591342 -0.6250057626472687 M-85.94310621591342 0.6250057626472781 C-85.94310621591342 0.1776537773123547, -85.94310621591342 -0.2696982080225687, -85.94310621591342 -0.6250057626472687 M-85.94310621591342 -0.6250057626472687 C-85.91461960347603 -1.068707745339263, -85.88613299103864 -1.5124097280312576, -85.86301770250937 -1.8724490051997822 M-85.94310621591342 -0.6250057626472687 C-85.92585475515254 -0.8937111891263562, -85.90860329439167 -1.1624166156054436, -85.86301770250937 -1.8724490051997822 M-85.86301770250937 -1.8724490051997822 C-85.80641096228359 -2.3114797041256288, -85.74980422205783 -2.7505104030514755, -85.70316977658177 -3.112197953150895 M-85.86301770250937 -1.8724490051997822 C-85.82265325530626 -2.18550768684539, -85.78228880810316 -2.498566368490998, -85.70316977658177 -3.112197953150895 M-85.70316977658177 -3.112197953150895 C-85.64345174997125 -3.418837398386562, -85.58373372336072 -3.7254768436222285, -85.46421928754556 -4.339158212148126 M-85.70316977658177 -3.112197953150895 C-85.64770026012947 -3.3970221966470433, -85.59223074367716 -3.6818464401431914, -85.46421928754556 -4.339158212148126 M-85.46421928754556 -4.339158212148126 C-85.3704566193029 -4.696715903154868, -85.27669395106024 -5.054273594161612, -85.14714813421489 -5.548287939305123 M-85.46421928754556 -4.339158212148126 C-85.37201238166783 -4.690783106985727, -85.2798054757901 -5.042408001823328, -85.14714813421489 -5.548287939305123 M-85.14714813421489 -5.548287939305123 C-85.00723599409211 -5.9696810133826705, -84.86732385396935 -6.391074087460217, -84.75325922997033 -6.734618561215485 M-85.14714813421489 -5.548287939305123 C-85.02092825180105 -5.9284421147283535, -84.89470836938723 -6.308596290151584, -84.75325922997033 -6.734618561215485 M-84.75325922997033 -6.734618561215485 C-84.58399695272135 -7.152699658483972, -84.41473467547237 -7.570780755752459, -84.28417114880834 -7.893275190886676 M-84.75325922997033 -6.734618561215485 C-84.61026830293375 -7.087808915537341, -84.46727737589717 -7.440999269859197, -84.28417114880834 -7.893275190886676 M-84.28417114880834 -7.893275190886676 C-84.10035058053376 -8.274982534038946, -83.91653001225916 -8.656689877191216, -83.7418114742735 -9.019496659696282 M-84.28417114880834 -7.893275190886676 C-84.08437864019251 -8.308148609902315, -83.88458613157668 -8.723022028917953, -83.7418114742735 -9.019496659696282 M-83.7418114742735 -9.019496659696282 C-83.61500641565735 -9.24465188167383, -83.48820135704118 -9.46980710365138, -83.12840887860425 -10.108655082055243 M-83.7418114742735 -9.019496659696282 C-83.50322158874152 -9.44313716130402, -83.26463170320956 -9.866777662911757, -83.12840887860425 -10.108655082055243 M-83.12840887860425 -10.108655082055243 C-82.91502338926504 -10.43647249570718, -82.70163789992584 -10.764289909359116, -82.44648396464063 -11.156274872382308 M-83.12840887860425 -10.108655082055243 C-82.86338982929334 -10.515795509375941, -82.59837077998242 -10.92293593669664, -82.44648396464063 -11.156274872382308 M-82.44648396464063 -11.156274872382308 C-82.19160032900638 -11.49779572375532, -81.93671669337212 -11.839316575128331, -81.69883890812659 -12.158051136245302 M-82.44648396464063 -11.156274872382308 C-82.23558841078608 -11.438855701567217, -82.02469285693152 -11.721436530752124, -81.69883890812659 -12.158051136245302 M-81.69883890812659 -12.158051136245302 C-81.38739537073127 -12.523890436909147, -81.07595183333596 -12.88972973757299, -80.88854594296866 -13.10986736009567 M-81.69883890812659 -12.158051136245302 C-81.4770654242358 -12.41855888969214, -81.25529194034502 -12.679066643138976, -80.88854594296866 -13.10986736009567 M-80.88854594296866 -13.10986736009567 C-80.64600123618935 -13.360314683136071, -80.40345652941004 -13.610762006176472, -80.01893473676799 -14.007812326905677 M-80.88854594296866 -13.10986736009567 C-80.69889202714835 -13.305700599056214, -80.50923811132803 -13.501533838016757, -80.01893473676799 -14.007812326905677 M-80.01893473676799 -14.007812326905677 C-79.79016254794692 -14.21557717581255, -79.56139035912585 -14.423342024719425, -79.0935787085019 -14.848196188198107 M-80.01893473676799 -14.007812326905677 C-79.72374945116195 -14.275891793118413, -79.42856416555591 -14.54397125933115, -79.0935787085019 -14.848196188198107 M-79.0935787085019 -14.848196188198107 C-78.88773676106733 -15.0123496635929, -78.68189481363277 -15.176503138987693, -78.11628034457871 -15.627565626425149 M-79.0935787085019 -14.848196188198107 C-78.78130682894037 -15.09722470224471, -78.46903494937885 -15.346253216291313, -78.11628034457871 -15.627565626425149 M-78.11628034457871 -15.627565626425149 C-77.72850295087696 -15.898062349658675, -77.3407255571752 -16.1685590728922, -77.09105557360571 -16.342718045390885 M-78.11628034457871 -15.627565626425149 C-77.71487266744398 -15.907570245336053, -77.31346499030927 -16.187574864246958, -77.09105557360571 -16.342718045390885 M-77.09105557360571 -16.342718045390885 C-76.79134080198021 -16.524406901269767, -76.4916260303547 -16.70609575714865, -76.02211726407678 -16.99071473040609 M-77.09105557360571 -16.342718045390885 C-76.68795365306231 -16.587080798514123, -76.2848517325189 -16.83144355163736, -76.02211726407678 -16.99071473040609 M-76.02211726407678 -16.99071473040609 C-75.76460853603585 -17.125056868882833, -75.50709980799492 -17.259399007359573, -74.9138579127924 -17.56889292409717 M-76.02211726407678 -16.99071473040609 C-75.60653246580375 -17.207525053470366, -75.19094766753072 -17.424335376534643, -74.9138579127924 -17.56889292409717 M-74.9138579127924 -17.56889292409717 C-74.56544484797554 -17.72312505258524, -74.21703178315867 -17.87735718107331, -73.77083159514781 -18.07487676824742 M-74.9138579127924 -17.56889292409717 C-74.47637008683057 -17.76255580703521, -74.03888226086873 -17.95621868997325, -73.77083159514781 -18.07487676824742 M-73.77083159514781 -18.07487676824742 C-73.46632555010589 -18.18693780764587, -73.16181950506397 -18.298998847044317, -72.59773525146062 -18.506587066708033 M-73.77083159514781 -18.07487676824742 C-73.44051423482382 -18.196436610266854, -73.11019687449983 -18.31799645228629, -72.59773525146062 -18.506587066708033 M-72.59773525146062 -18.506587066708033 C-72.21095241139561 -18.62138218337477, -71.8241695713306 -18.736177300041508, -71.39938938623541 -18.862249829261067 M-72.59773525146062 -18.506587066708033 C-72.18184522301348 -18.630021044099838, -71.76595519456635 -18.75345502149164, -71.39938938623541 -18.862249829261067 M-71.39938938623541 -18.862249829261067 C-71.14365679359348 -18.920619124720464, -70.88792420095156 -18.978988420179856, -70.18071825967677 -19.140403561325773 M-71.39938938623541 -18.862249829261067 C-71.08872188904084 -18.933157658200848, -70.77805439184627 -19.00406548714063, -70.18071825967677 -19.140403561325773 M-70.18071825967677 -19.140403561325773 C-69.8232236474476 -19.198200517818858, -69.46572903521844 -19.255997474311947, -68.94672965284788 -19.3399052695533 M-70.18071825967677 -19.140403561325773 C-69.81203372873937 -19.200009617096494, -69.44334919780195 -19.259615672867213, -68.94672965284788 -19.3399052695533 M-68.94672965284788 -19.3399052695533 C-68.51241924898652 -19.381802671879125, -68.07810884512514 -19.423700074204948, -67.7024942896239 -19.45993515863156 M-68.94672965284788 -19.3399052695533 C-68.49399218831347 -19.38358030826047, -68.04125472377905 -19.42725534696764, -67.7024942896239 -19.45993515863156 M-67.7024942896239 -19.45993515863156 C-67.30534533488608 -19.472670952606457, -66.90819638014827 -19.48540674658135, -66.453125 -19.5 M-67.7024942896239 -19.45993515863156 C-67.32370049851109 -19.47208233823516, -66.94490670739829 -19.484229517838763, -66.453125 -19.5 M-66.453125 -19.5 C-66.453125 -19.5, -66.453125 -19.5, -66.453125 -19.5 M-66.453125 -19.5 C-66.453125 -19.5, -66.453125 -19.5, -66.453125 -19.5" stroke="#999" stroke-width="1.3" fill="none" stroke-dasharray="0 0" style=""/></g><g class="label" style="" transform="translate(-73.578125, -12)"><rect/><foreignObject width="147.15625" height="24"><div xmlns="http://www.w3.org/1999/xhtml" style="display: table-cell; white-space: nowrap; line-height: 1.5; max-width: 200px; text-align: center;"><span class="nodeLabel markdown-node-label"><p>🏁 serviço operando</p></span></div></foreignObject></g></g></g></g></g><defs><filter id="my-svg-drop-shadow" height="130%" width="130%"><feDropShadow dx="4" dy="4" stdDeviation="0" flood-opacity="0.06" flood-color="#000000"/></filter></defs><defs><filter id="my-svg-drop-shadow-small" height="150%" width="150%"><feDropShadow dx="2" dy="2" stdDeviation="0" flood-opacity="0.06" flood-color="#000000"/></filter></defs><linearGradient id="my-svg-gradient" gradientUnits="objectBoundingBox" x1="0%" y1="0%" x2="100%" y2="0%"><stop offset="0%" stop-color="hsl(0, 0%, 83.3333333333%)" stop-opacity="1"/><stop offset="100%" stop-color="hsl(0, 0%, 88.9215686275%)" stop-opacity="1"/></linearGradient></svg>