<svg id="my-svg" width="100%" xmlns="http://www.w3.org/2000/svg" xmlns:xlink="http://www.w3.org/1999/xlink" class="flowchart" style="max-width: 1125.64px; background-color: white;" viewBox="0 0 1125.63623046875 134.6892318725586" role="graphics-document document" aria-roledescription="flowchart-v2"><style>#my-svg{font-family:Arial,Helvetica,sans-serif;font-size:16px;fill:#000000;}@keyframes edge-animation-frame{from{stroke-dashoffset:0;}}@keyframes dash{to{stroke-dashoffset:0;}}#my-svg .edge-animation-slow{stroke-dasharray:9,5!important;stroke-dashoffset:900;animation:dash 50s linear infinite;stroke-linecap:round;}#my-svg .edge-animation-fast{stroke-dasharray:9,5!important;stroke-dashoffset:900;animation:dash 20s linear infinite;stroke-linecap:round;}#my-svg .error-icon{fill:#552222;}#my-svg .error-text{fill:#552222;stroke:#552222;}#my-svg .edge-thickness-normal{stroke-width:1px;}#my-svg .edge-thickness-thick{stroke-width:3.5px;}#my-svg .edge-pattern-solid{stroke-dasharray:0;}#my-svg .edge-thickness-invisible{stroke-width:0;fill:none;}#my-svg .edge-pattern-dashed{stroke-dasharray:3;}#my-svg .edge-pattern-dotted{stroke-dasharray:2;}#my-svg .marker{fill:#666;stroke:#666;}#my-svg .marker.cross{stroke:#666;}#my-svg svg{font-family:Arial,Helvetica,sans-serif;font-size:16px;}#my-svg p{margin:0;}#my-svg .label{font-family:Arial,Helvetica,sans-serif;color:#000000;}#my-svg .cluster-label text{fill:#333;}#my-svg .cluster-label span{color:#333;}#my-svg .cluster-label span p{background-color:transparent;}#my-svg .label text,#my-svg span{fill:#000000;color:#000000;}#my-svg .node rect,#my-svg .node circle,#my-svg .node ellipse,#my-svg .node polygon,#my-svg .node path{fill:#eee;stroke:#999;stroke-width:1px;}#my-svg .rough-node .label text,#my-svg .node .label text,#my-svg .image-shape .label,#my-svg .icon-shape .label{text-anchor:middle;}#my-svg .node .katex path{fill:#000;stroke:#000;stroke-width:1px;}#my-svg .rough-node .label,#my-svg .node .label,#my-svg .image-shape .label,#my-svg .icon-shape .label{text-align:center;}#my-svg .node.clickable{cursor:pointer;}#my-svg .root .anchor path{fill:#666!important;stroke-width:0;stroke:#666;}#my-svg .arrowheadPath{fill:#333333;}#my-svg .edgePaths .path{stroke:#666;stroke-width:1px;}#my-svg .flowchart-link{stroke:#666;fill:none;}#my-svg .edgeLabel{background-color:white;text-align:center;}#my-svg .edgeLabel p{background-color:white;}#my-svg .edgeLabel rect{opacity:0.5;background-color:white;fill:white;}#my-svg .labelBkg{background-color:rgba(255, 255, 255, 0.5);}#my-svg .cluster rect{fill:hsl(0, 0%, 98.9215686275%);stroke:#707070;stroke-width:1px;}#my-svg .cluster text{fill:#333;}#my-svg .cluster span{color:#333;}#my-svg .node .collapsed-indicator{fill:#707070;stroke:none;opacity:0.6;}#my-svg .node .collapsed-separator{stroke:#707070;stroke-width:0.75px;}#my-svg div.mermaidTooltip{position:absolute;text-align:center;max-width:200px;padding:2px;font-family:Arial,Helvetica,sans-serif;font-size:12px;background:hsl(-160, 0%, 93.3333333333%);border:1px solid #707070;border-radius:2px;pointer-events:none;z-index:100;}#my-svg .flowchartTitleText{text-anchor:middle;font-size:18px;fill:#000000;}#my-svg rect.text{fill:none;stroke-width:0;}#my-svg .icon-shape,#my-svg .image-shape{background-color:white;text-align:center;}#my-svg .icon-shape p,#my-svg .image-shape p{background-color:white;padding:2px;}#my-svg .icon-shape .label rect,#my-svg .image-shape .label rect{opacity:0.5;background-color:white;fill:white;}#my-svg .label-icon{display:inline-block;height:1em;overflow:visible;vertical-align:-0.125em;}#my-svg .node .label-icon path{fill:currentColor;stroke:revert;stroke-width:revert;}#my-svg .node .neo-node{stroke:#999;}#my-svg [data-look="neo"].node rect,#my-svg [data-look="neo"].cluster rect,#my-svg [data-look="neo"].node polygon{stroke:url(#my-svg-gradient);filter:drop-shadow( 1px 2px 2px rgba(185,185,185,1));}#my-svg [data-look="neo"].swimlane.cluster rect{filter:none;}#my-svg [data-look="neo"].node path{stroke:url(#my-svg-gradient);stroke-width:1px;}#my-svg [data-look="neo"].node .outer-path{filter:drop-shadow( 1px 2px 2px rgba(185,185,185,1));}#my-svg [data-look="neo"].node .neo-line path{stroke:#999;filter:none;}#my-svg [data-look="neo"].node circle{stroke:url(#my-svg-gradient);filter:drop-shadow( 1px 2px 2px rgba(185,185,185,1));}#my-svg [data-look="neo"].node circle .state-start{fill:#000000;}#my-svg [data-look="neo"].icon-shape .icon{fill:url(#my-svg-gradient);filter:drop-shadow( 1px 2px 2px rgba(185,185,185,1));}#my-svg [data-look="neo"].icon-shape .icon-neo path{stroke:url(#my-svg-gradient);filter:drop-shadow( 1px 2px 2px rgba(185,185,185,1));}#my-svg :root{--mermaid-font-family:Arial,Helvetica,sans-serif;}</style><g><marker id="my-svg_flowchart-v2-pointEnd" class="marker flowchart-v2" viewBox="0 0 10 10" refX="5" refY="5" markerUnits="userSpaceOnUse" markerWidth="8" markerHeight="8" orient="auto"><path d="M 0 0 L 10 5 L 0 10 z" class="arrowMarkerPath" style="stroke-width: 1; stroke-dasharray: 1, 0;"/></marker><marker id="my-svg_flowchart-v2-pointStart" class="marker flowchart-v2" viewBox="0 0 10 10" refX="4.5" refY="5" markerUnits="userSpaceOnUse" markerWidth="8" markerHeight="8" orient="auto"><path d="M 0 5 L 10 10 L 10 0 z" class="arrowMarkerPath" style="stroke-width: 1; stroke-dasharray: 1, 0;"/></marker><marker id="my-svg_flowchart-v2-pointEnd-margin" class="marker flowchart-v2" viewBox="0 0 11.5 14" refX="11.5" refY="7" markerUnits="userSpaceOnUse" markerWidth="10.5" markerHeight="14" orient="auto"><path d="M 0 0 L 11.5 7 L 0 14 z" class="arrowMarkerPath" style="stroke-width: 0; stroke-dasharray: 1, 0;"/></marker><marker id="my-svg_flowchart-v2-pointStart-margin" class="marker flowchart-v2" viewBox="0 0 11.5 14" refX="1" refY="7" markerUnits="userSpaceOnUse" markerWidth="11.5" markerHeight="14" orient="auto"><polygon points="0,7 11.5,14 11.5,0" class="arrowMarkerPath" style="stroke-width: 0; stroke-dasharray: 1, 0;"/></marker><marker id="my-svg_flowchart-v2-circleEnd" class="marker flowchart-v2" viewBox="0 0 10 10" refX="11" refY="5" markerUnits="userSpaceOnUse" markerWidth="11" markerHeight="11" orient="auto"><circle cx="5" cy="5" r="5" class="arrowMarkerPath" style="stroke-width: 1; stroke-dasharray: 1, 0;"/></marker><marker id="my-svg_flowchart-v2-circleStart" class="marker flowchart-v2" viewBox="0 0 10 10" refX="-1" refY="5" markerUnits="userSpaceOnUse" markerWidth="11" markerHeight="11" orient="auto"><circle cx="5" cy="5" r="5" class="arrowMarkerPath" style="stroke-width: 1; stroke-dasharray: 1, 0;"/></marker><marker id="my-svg_flowchart-v2-circleEnd-margin" class="marker flowchart-v2" viewBox="0 0 10 10" refY="5" refX="12.25" markerUnits="userSpaceOnUse" markerWidth="14" markerHeight="14" orient="auto"><circle cx="5" cy="5" r="5" class="arrowMarkerPath" style="stroke-width: 0; stroke-dasharray: 1, 0;"/></marker><marker id="my-svg_flowchart-v2-circleStart-margin" class="marker flowchart-v2" viewBox="0 0 10 10" refX="-2" refY="5" markerUnits="userSpaceOnUse" markerWidth="14" markerHeight="14" orient="auto"><circle cx="5" cy="5" r="5" class="arrowMarkerPath" style="stroke-width: 0; stroke-dasharray: 1, 0;"/></marker><marker id="my-svg_flowchart-v2-crossEnd" class="marker cross flowchart-v2" viewBox="0 0 11 11" refX="12" refY="5.2" markerUnits="userSpaceOnUse" markerWidth="11" markerHeight="11" orient="auto"><path d="M 1,1 l 9,9 M 10,1 l -9,9" class="arrowMarkerPath" style="stroke-width: 2; stroke-dasharray: 1, 0;"/></marker><marker id="my-svg_flowchart-v2-crossStart" class="marker cross flowchart-v2" viewBox="0 0 11 11" refX="-1" refY="5.2" markerUnits="userSpaceOnUse" markerWidth="11" markerHeight="11" orient="auto"><path d="M 1,1 l 9,9 M 10,1 l -9,9" class="arrowMarkerPath" style="stroke-width: 2; stroke-dasharray: 1, 0;"/></marker><marker id="my-svg_flowchart-v2-crossEnd-margin" class="marker cross flowchart-v2" viewBox="0 0 15 15" refX="17.7" refY="7.5" markerUnits="userSpaceOnUse" markerWidth="12" markerHeight="12" orient="auto"><path d="M 1,1 L 14,14 M 1,14 L 14,1" class="arrowMarkerPath" style="stroke-width: 2.5;"/></marker><marker id="my-svg_flowchart-v2-crossStart-margin" class="marker cross flowchart-v2" viewBox="0 0 15 15" refX="-3.5" refY="7.5" markerUnits="userSpaceOnUse" markerWidth="12" markerHeight="12" orient="auto"><path d="M 1,1 L 14,14 M 1,14 L 14,1" class="arrowMarkerPath" style="stroke-width: 2.5; stroke-dasharray: 1, 0;"/></marker><g class="root"><g class="clusters"/><g class="edgePaths"><path d="M111.96,67.845L117.058,67.761C122.156,67.678,132.351,67.511,140.949,67.428C149.547,67.345,156.547,67.345,160.047,67.345L163.547,67.345" id="my-svg-L_usuario_manage_0" class="edge-thickness-normal edge-pattern-solid edge-thickness-normal edge-pattern-solid flowchart-link" style=";" data-edge="true" data-et="edge" data-id="L_usuario_manage_0" data-points="W3sieCI6MTExLjk2MDE4NTE5NzQ2NTQyLCJ5Ijo2Ny44NDQ2MTU5MzYyNzkzfSx7IngiOjE0Mi41NDY4NzUsInkiOjY3LjM0NDYxNTkzNjI3OTN9LHsieCI6MTY3LjU0Njg3NSwieSI6NjcuMzQ0NjE1OTM2Mjc5M31d" data-look="classic" marker-end="url(#my-svg_flowchart-v2-pointEnd)"/><path d="M346.078,67.345L350.245,67.345C354.411,67.345,362.745,67.345,370.411,67.345C378.078,67.345,385.078,67.345,388.578,67.345L392.078,67.345" id="my-svg-L_manage_interno_0" class="edge-thickness-normal edge-pattern-solid edge-thickness-normal edge-pattern-solid flowchart-link" style=";" data-edge="true" data-et="edge" data-id="L_manage_interno_0" data-points="W3sieCI6MzQ2LjA3ODEyNSwieSI6NjcuMzQ0NjE1OTM2Mjc5M30seyJ4IjozNzEuMDc4MTI1LCJ5Ijo2Ny4zNDQ2MTU5MzYyNzkzfSx7IngiOjM5Ni4wNzgxMjUsInkiOjY3LjM0NDYxNTkzNjI3OTN9XQ==" data-look="classic" marker-end="url(#my-svg_flowchart-v2-pointEnd)"/><path d="M563.953,67.345L568.12,67.345C572.286,67.345,580.62,67.345,588.286,67.345C595.953,67.345,602.953,67.345,606.453,67.345L609.953,67.345" id="my-svg-L_interno_puredb_0" class="edge-thickness-normal edge-pattern-solid edge-thickness-normal edge-pattern-solid flowchart-link" style=";" data-edge="true" data-et="edge" data-id="L_interno_puredb_0" data-points="W3sieCI6NTYzLjk1MzEyNSwieSI6NjcuMzQ0NjE1OTM2Mjc5M30seyJ4Ijo1ODguOTUzMTI1LCJ5Ijo2Ny4zNDQ2MTU5MzYyNzkzfSx7IngiOjYxMy45NTMxMjUsInkiOjY3LjM0NDYxNTkzNjI3OTN9XQ==" data-look="classic" marker-end="url(#my-svg_flowchart-v2-pointEnd)"/><path d="M731.219,67.345L735.385,67.345C739.552,67.345,747.885,67.345,755.552,67.345C763.219,67.345,770.219,67.345,773.719,67.345L777.219,67.345" id="my-svg-L_puredb_pasta_0" class="edge-thickness-normal edge-pattern-solid edge-thickness-normal edge-pattern-solid flowchart-link" style=";" data-edge="true" data-et="edge" data-id="L_puredb_pasta_0" data-points="W3sieCI6NzMxLjIxODc1LCJ5Ijo2Ny4zNDQ2MTU5MzYyNzkzfSx7IngiOjc1Ni4yMTg3NSwieSI6NjcuMzQ0NjE1OTM2Mjc5M30seyJ4Ijo3ODEuMjE4NzUsInkiOjY3LjM0NDYxNTkzNjI3OTN9XQ==" data-look="classic" marker-end="url(#my-svg_flowchart-v2-pointEnd)"/><path d="M929.531,67.345L933.698,67.345C937.865,67.345,946.198,67.345,953.948,67.415C961.698,67.485,968.865,67.626,972.449,67.696L976.032,67.766" id="my-svg-L_pasta_fim_0" class="edge-thickness-normal edge-pattern-solid edge-thickness-normal edge-pattern-solid flowchart-link" style=";" data-edge="true" data-et="edge" data-id="L_pasta_fim_0" data-points="W3sieCI6OTI5LjUzMTI1LCJ5Ijo2Ny4zNDQ2MTU5MzYyNzkzfSx7IngiOjk1NC41MzEyNSwieSI6NjcuMzQ0NjE1OTM2Mjc5M30seyJ4Ijo5ODAuMDMxMjQ5OTk5OTk5NCwieSI6NjcuODQ0NjE1OTM2Mjc5M31d" data-look="classic" marker-end="url(#my-svg_flowchart-v2-pointEnd)"/></g><g class="edgeLabels"><g class="edgeLabel"><g class="label" data-id="L_usuario_manage_0" transform="translate(0, 0)"><foreignObject width="0" height="0"><div xmlns="http://www.w3.org/1999/xhtml" class="labelBkg" style="display: table-cell; white-space: nowrap; line-height: 1.5; max-width: 200px; text-align: center;"><span class="edgeLabel"></span></div></foreignObject></g></g><g class="edgeLabel"><g class="label" data-id="L_manage_interno_0" transform="translate(0, 0)"><foreignObject width="0" height="0"><div xmlns="http://www.w3.org/1999/xhtml" class="labelBkg" style="display: table-cell; white-space: nowrap; line-height: 1.5; max-width: 200px; text-align: center;"><span class="edgeLabel"></span></div></foreignObject></g></g><g class="edgeLabel"><g class="label" data-id="L_interno_puredb_0" transform="translate(0, 0)"><foreignObject width="0" height="0"><div xmlns="http://www.w3.org/1999/xhtml" class="labelBkg" style="display: table-cell; white-space: nowrap; line-height: 1.5; max-width: 200px; text-align: center;"><span class="edgeLabel"></span></div></foreignObject></g></g><g class="edgeLabel"><g class="label" data-id="L_puredb_pasta_0" transform="translate(0, 0)"><foreignObject width="0" height="0"><div xmlns="http://www.w3.org/1999/xhtml" class="labelBkg" style="display: table-cell; white-space: nowrap; line-height: 1.5; max-width: 200px; text-align: center;"><span class="edgeLabel"></span></div></foreignObject></g></g><g class="edgeLabel"><g class="label" data-id="L_pasta_fim_0" transform="translate(0, 0)"><foreignObject width="0" height="0"><div xmlns="http://www.w3.org/1999/xhtml" class="labelBkg" style="display: table-cell; white-space: nowrap; line-height: 1.5; max-width: 200px; text-align: center;"><span class="edgeLabel"></span></div></foreignObject></g></g></g><g class="nodes"><g class="node default" id="my-svg-flowchart-usuario-0" data-look="classic" transform="translate(62.7734375, 67.3446159362793)"><g class="basic label-container"><rect x="-54.7734375" y="-5.205649218749997" width="109.546875" height="54" rx="19.389796875" ry="19.389796875" style=""/><circle cx="0" cy="-23.598569531249996" r="25.19578125" style=""/></g><g class="label" style="" transform="translate(-39.7734375, 9.794350781250003)"><rect/><foreignObject width="79.546875" height="24"><div xmlns="http://www.w3.org/1999/xhtml" style="display: table-cell; white-space: nowrap; line-height: 1.5; max-width: 200px; text-align: center;"><span class="nodeLabel markdown-node-label"><p>👤 Usuário</p></span></div></foreignObject></g></g><g class="node default" id="my-svg-flowchart-manage-2" data-look="classic" transform="translate(256.8125, 67.3446159362793)"><g class="basic label-container"><rect x="-89.265625" y="-49" width="178.53125" height="98" rx="12" ry="12" style=""/><text x="-77.265625" y="-33" class="console-glyph" style="font-family:monospace;font-weight:bold;font-size:14px;fill:#999">&gt;_</text></g><g class="label" style="" transform="translate(-74.265625, -14)"><rect/><foreignObject width="148.53125" height="48"><div xmlns="http://www.w3.org/1999/xhtml" style="display: table-cell; white-space: nowrap; line-height: 1.5; max-width: 200px; text-align: center;"><span class="nodeLabel markdown-node-label"><p>⌨️ manage-user.sh<br />add, passwd, del, list</p></span></div></foreignObject></g></g><g class="node default" id="my-svg-flowchart-interno-4" data-look="classic" transform="translate(480.015625, 67.3446159362793)"><g class="basic label-container"><rect x="-83.9375" y="-49" width="167.875" height="98" rx="12" ry="12" style=""/><text x="-71.9375" y="-33" class="console-glyph" style="font-family:monospace;font-weight:bold;font-size:14px;fill:#999">&gt;_</text></g><g class="label" style="" transform="translate(-68.9375, -14)"><rect/><foreignObject width="137.875" height="48"><div xmlns="http://www.w3.org/1999/xhtml" style="display: table-cell; white-space: nowrap; line-height: 1.5; max-width: 200px; text-align: center;"><span class="nodeLabel markdown-node-label"><p>⌨️ allsafe-ftp-user<br />dentro do container</p></span></div></foreignObject></g></g><g class="node default" id="my-svg-flowchart-puredb-6" data-look="classic" transform="translate(672.5859375, 67.3446159362793)"><path d="M0,12.10093518219929 a58.6328125,12.10093518219929 0,0,0 117.265625,0 a58.6328125,12.10093518219929 0,0,0 -117.265625,0 l0,75.1009351821993 a58.6328125,12.10093518219929 0,0,0 117.265625,0 l0,-75.1009351821993" class="basic label-container outer-path" style="" transform="translate(-58.6328125, -49.65140277329894)"/><g class="label" style="" transform="translate(-51.1328125, -14)"><rect/><foreignObject width="102.265625" height="48"><div xmlns="http://www.w3.org/1999/xhtml" style="display: table-cell; white-space: nowrap; line-height: 1.5; max-width: 200px; text-align: center;"><span class="nodeLabel markdown-node-label"><p>🗄️ PureDB<br />contas virtuais</p></span></div></foreignObject></g></g><g class="node default" id="my-svg-flowchart-pasta-8" data-look="classic" transform="translate(855.375, 67.3446159362793)"><path d="M0,13.566201692202148 a74.15625,13.566201692202148 0,0,0 148.3125,0 a74.15625,13.566201692202148 0,0,0 -148.3125,0 l0,91.56620169220216 a74.15625,13.566201692202148 0,0,0 148.3125,0 l0,-91.56620169220216 M0,22.722821861422364 a74.15625,13.566201692202148 0,0,0 148.3125,0" class="basic label-container outer-path" style="" transform="translate(-74.15625, -59.34930253830323)"/><g class="label" style="" transform="translate(-59.15625, -10.433798307797852)"><rect/><foreignObject width="118.3125" height="48"><div xmlns="http://www.w3.org/1999/xhtml" style="display: table-cell; white-space: nowrap; line-height: 1.5; max-width: 200px; text-align: center;"><span class="nodeLabel markdown-node-label"><p>💽 /data<br />pasta do usuário</p></span></div></foreignObject></g></g><g class="node default" id="my-svg-flowchart-fim-10" data-look="classic" transform="translate(1048.5837326049805, 67.3446159362793)"><g class="basic label-container outer-path"><path d="M-49.5625 -19.5 C-22.611773314123482 -19.5, 4.3389533717530355 -19.5, 49.5625 -19.5 C49.5625 -19.5, 49.5625 -19.5, 49.5625 -19.5 C49.93381768679543 -19.488092564510502, 50.30513537359086 -19.476185129021005, 50.8118692896239 -19.45993515863156 C51.211041049598286 -19.42142753902111, 51.61021280957267 -19.382919919410657, 52.056104652847864 -19.3399052695533 C52.452310946322605 -19.27584970865, 52.848517239797346 -19.211794147746698, 53.29009325967676 -19.140403561325776 C53.58998025763381 -19.071956310987627, 53.88986725559086 -19.003509060649478, 54.50876438623539 -18.862249829261074 C54.79413419398848 -18.777553568256646, 55.07950400174156 -18.69285730725222, 55.707110251460605 -18.50658706670804 C55.997734842060986 -18.399634530862834, 56.288359432661366 -18.292681995017627, 56.8802065951478 -18.074876768247425 C57.30976391720692 -17.88472448413707, 57.739321239266054 -17.694572200026716, 58.02323291279238 -17.568892924097174 C58.44007576630992 -17.351426274417665, 58.856918619827454 -17.133959624738157, 59.13149226407678 -16.990714730406097 C59.436690800673965 -16.8057015839752, 59.741889337271154 -16.620688437544306, 60.2004305736057 -16.342718045390892 C60.575125126165766 -16.081347345790746, 60.94981967872583 -15.819976646190598, 61.22565534457871 -15.627565626425154 C61.56563433643944 -15.356441427637158, 61.90561332830016 -15.085317228849162, 62.202953708501866 -14.848196188198123 C62.464314837992106 -14.61083492563163, 62.72567596748235 -14.373473663065136, 63.12830973676799 -14.007812326905688 C63.361221278092685 -13.767312038094763, 63.59413281941739 -13.526811749283839, 63.99792094296865 -13.10986736009568 C64.2246930105509 -12.843487985817388, 64.45146507813313 -12.577108611539096, 64.80821390812658 -12.158051136245305 C65.01493786053713 -11.881059872954657, 65.22166181294769 -11.604068609664008, 65.55585896464063 -11.156274872382312 C65.80633117978877 -10.77148228870756, 66.05680339493689 -10.38668970503281, 66.23778387860425 -10.108655082055241 C66.46491138046476 -9.705367203348397, 66.69203888232528 -9.30207932464155, 66.8511864742735 -9.019496659696287 C66.97466619911596 -8.763088369018071, 67.09814592395841 -8.506680078339853, 67.39354614880834 -7.893275190886684 C67.51379034640482 -7.5962696980599755, 67.6340345440013 -7.299264205233267, 67.86263422997033 -6.734618561215508 C67.98582994137307 -6.36357270704147, 68.1090256527758 -5.9925268528674325, 68.25652313421489 -5.548287939305138 C68.32579103917776 -5.284139396781797, 68.39505894414063 -5.019990854258458, 68.57359428754556 -4.339158212148133 C68.64333893694923 -3.9810341779971568, 68.7130835863529 -3.6229101438461804, 68.81254477658177 -3.1121979531509023 C68.85015647033977 -2.8204890836328667, 68.88776816409778 -2.528780214114831, 68.97239270250937 -1.872449005199798 C68.99907557335438 -1.4568417537631333, 69.02575844419938 -1.0412345023264686, 69.05248121591342 -0.6250057626472757 C69.05248121591342 -0.15728989830485862, 69.05248121591342 0.31042596603755845, 69.05248121591342 0.625005762647271 C69.03633025777651 0.8765699724482832, 69.02017929963961 1.1281341822492952, 68.97239270250937 1.8724490051997846 C68.92873198544832 2.2110729049414726, 68.88507126838728 2.5496968046831605, 68.81254477658177 3.1121979531508885 C68.75581798628149 3.403478032131466, 68.69909119598121 3.6947581111120438, 68.57359428754556 4.339158212148129 C68.45421014921051 4.794421673032513, 68.33482601087547 5.249685133916897, 68.25652313421489 5.548287939305125 C68.12421595552911 5.946776081220532, 67.99190877684332 6.345264223135938, 67.86263422997033 6.734618561215495 C67.76268977884178 6.981483287797534, 67.66274532771321 7.2283480143795735, 67.39354614880834 7.893275190886679 C67.17769608500015 8.341492466835907, 66.96184602119195 8.789709742785135, 66.8511864742735 9.019496659696284 C66.63935057131647 9.395632756107712, 66.42751466835942 9.771768852519143, 66.23778387860425 10.108655082055236 C66.08167245909652 10.34848414420485, 65.92556103958879 10.588313206354464, 65.55585896464065 11.156274872382301 C65.34551427491533 11.438117593818777, 65.13516958519001 11.719960315255252, 64.80821390812659 12.158051136245302 C64.59690442127584 12.40626728335061, 64.3855949344251 12.654483430455917, 63.99792094296866 13.10986736009567 C63.678779360031065 13.439407246489989, 63.35963777709347 13.768947132884309, 63.12830973676799 14.007812326905684 C62.89340739340167 14.221144419975555, 62.65850505003534 14.434476513045427, 62.20295370850189 14.848196188198111 C61.901812740828085 15.088348096220264, 61.60067177315428 15.328500004242416, 61.22565534457871 15.627565626425152 C61.01735485742302 15.772867029082203, 60.80905437026733 15.918168431739256, 60.20043057360571 16.34271804539089 C59.864722196676 16.546226436327082, 59.52901381974629 16.74973482726328, 59.13149226407678 16.990714730406093 C58.79027802803524 17.168725978790818, 58.449063791993694 17.346737227175545, 58.02323291279239 17.56889292409717 C57.682494422362126 17.71972774616245, 57.34175593193187 17.870562568227736, 56.880206595147804 18.07487676824742 C56.544216696730636 18.198524156721515, 56.20822679831346 18.322171545195605, 55.70711025146062 18.506587066708033 C55.245066467360886 18.643719236511522, 54.78302268326115 18.78085140631501, 54.50876438623541 18.86224982926107 C54.260697176757446 18.91886955103459, 54.01262996727948 18.97548927280811, 53.290093259676766 19.140403561325773 C52.8116252877408 19.21775855245384, 52.33315731580484 19.295113543581905, 52.05610465284788 19.3399052695533 C51.69442175740477 19.37479638348937, 51.33273886196165 19.40968749742545, 50.8118692896239 19.45993515863156 C50.39225858915347 19.473391257072965, 49.97264788868304 19.48684735551437, 49.56250000000001 19.5 C49.56250000000001 19.5, 49.5625 19.5, 49.5625 19.5 C15.853318431036968 19.5, -17.855863137926065 19.5, -49.56249999999999 19.5 C-50.05038336616322 19.48435453005451, -50.53826673232644 19.468709060109017, -50.81186928962389 19.45993515863156 C-51.156714763019586 19.426668330550438, -51.50156023641529 19.393401502469313, -52.05610465284787 19.3399052695533 C-52.32111783342392 19.29705999372567, -52.586131013999974 19.254214717898048, -53.29009325967676 19.140403561325773 C-53.606240008355186 19.06824512899026, -53.922386757033614 18.996086696654746, -54.508764386235384 18.862249829261074 C-54.926733268618996 18.738198858933053, -55.34470215100261 18.614147888605032, -55.70711025146059 18.506587066708043 C-56.00769501956817 18.39596909346932, -56.308279787675744 18.285351120230594, -56.8802065951478 18.074876768247425 C-57.19862103063873 17.93392414308422, -57.51703546612967 17.792971517921014, -58.02323291279238 17.568892924097174 C-58.25418132313101 17.44840728635303, -58.485129733469634 17.327921648608886, -59.13149226407678 16.990714730406097 C-59.48053857926774 16.77912080291351, -59.82958489445869 16.567526875420924, -60.200430573605686 16.3427180453909 C-60.47878664683229 16.148548898548224, -60.75714272005889 15.954379751705549, -61.22565534457871 15.627565626425156 C-61.46883687084791 15.433634830557661, -61.712018397117106 15.239704034690169, -62.202953708501866 14.848196188198125 C-62.39947393934691 14.669721714185032, -62.59599417019196 14.491247240171939, -63.128309736767974 14.007812326905697 C-63.310121609668634 13.8200766411034, -63.49193348256929 13.632340955301101, -63.997920942968655 13.109867360095677 C-64.31307688629951 12.73966725617805, -64.62823282963038 12.369467152260421, -64.80821390812658 12.158051136245307 C-65.06814703124081 11.809764431666904, -65.32808015435504 11.461477727088502, -65.55585896464063 11.156274872382316 C-65.77121098106774 10.825436345036906, -65.98656299749483 10.494597817691496, -66.23778387860425 10.108655082055249 C-66.4304933925682 9.76647982605796, -66.62320290653213 9.42430457006067, -66.8511864742735 9.019496659696289 C-66.96578018747286 8.781540362325142, -67.08037390067223 8.543584064953995, -67.39354614880834 7.893275190886686 C-67.51495310854126 7.593397653102486, -67.63636006827419 7.2935201153182865, -67.86263422997033 6.73461856121551 C-67.97830231565403 6.386244716342899, -68.09397040133774 6.037870871470289, -68.25652313421489 5.5482879393051325 C-68.37310863837752 5.103696883455912, -68.48969414254013 4.659105827606692, -68.57359428754556 4.339158212148136 C-68.63081663290396 4.045333562679739, -68.68803897826236 3.7515089132113415, -68.81254477658177 3.112197953150904 C-68.86945316930415 2.6708276970294023, -68.92636156202653 2.2294574409079004, -68.97239270250937 1.872449005199809 C-68.99769008668241 1.4784218270237015, -69.02298747085545 1.0843946488475937, -69.05248121591342 0.6250057626472781 C-69.05248121591342 0.28347832675062723, -69.05248121591342 -0.05804910914602368, -69.05248121591342 -0.6250057626472687 C-69.03306366324829 -0.9274498189731928, -69.01364611058314 -1.2298938752991169, -68.97239270250937 -1.8724490051997822 C-68.93018807921138 -2.199779729253506, -68.88798345591337 -2.52711045330723, -68.81254477658177 -3.112197953150895 C-68.74396769459872 -3.4643267753624585, -68.67539061261567 -3.816455597574022, -68.57359428754556 -4.339158212148126 C-68.4751816807425 -4.714448134181833, -68.37676907393941 -5.089738056215539, -68.25652313421489 -5.548287939305123 C-68.11052843938228 -5.988000699045223, -67.96453374454967 -6.427713458785322, -67.86263422997033 -6.734618561215485 C-67.73081754054202 -7.060208332605705, -67.59900085111373 -7.385798103995926, -67.39354614880834 -7.893275190886676 C-67.2116263122471 -8.271035623967036, -67.02970647568586 -8.648796057047393, -66.8511864742735 -9.019496659696282 C-66.70927266357968 -9.271479000914757, -66.56735885288586 -9.523461342133231, -66.23778387860425 -10.108655082055243 C-65.98221253758237 -10.501281292379085, -65.7266411965605 -10.893907502702927, -65.55585896464063 -11.156274872382308 C-65.29424720793146 -11.506810793051262, -65.0326354512223 -11.857346713720217, -64.80821390812659 -12.158051136245302 C-64.6012757752012 -12.401132442292791, -64.39433764227583 -12.644213748340281, -63.99792094296866 -13.10986736009567 C-63.68059231918679 -13.43753521731498, -63.36326369540493 -13.765203074534293, -63.128309736767996 -14.007812326905677 C-62.92061521090037 -14.196435000002632, -62.71292068503275 -14.385057673099586, -62.20295370850189 -14.848196188198107 C-61.96136639733875 -15.040855639942365, -61.71977908617561 -15.23351509168662, -61.22565534457872 -15.627565626425149 C-61.020539204853705 -15.770645766162739, -60.8154230651287 -15.913725905900328, -60.200430573605715 -16.342718045390885 C-59.81419406929909 -16.5768568840792, -59.427957564992475 -16.81099572276751, -59.13149226407679 -16.99071473040609 C-58.77791056091415 -17.175178078466146, -58.42432885775152 -17.359641426526206, -58.02323291279239 -17.56889292409717 C-57.778069898762205 -17.677419317905912, -57.53290688473202 -17.785945711714657, -56.880206595147804 -18.07487676824742 C-56.54463326078797 -18.19837085729774, -56.20905992642813 -18.321864946348057, -55.70711025146062 -18.506587066708033 C-55.43450562682518 -18.58749468836896, -55.16190100218973 -18.668402310029883, -54.50876438623541 -18.862249829261067 C-54.17025378509143 -18.93951266498407, -53.83174318394745 -19.01677550070707, -53.290093259676766 -19.140403561325773 C-52.95854609692913 -19.194005535412163, -52.62699893418151 -19.24760750949855, -52.05610465284788 -19.3399052695533 C-51.63499772337498 -19.38052894858437, -51.21389079390209 -19.42115262761544, -50.8118692896239 -19.45993515863156 C-50.52775209232478 -19.469046244148366, -50.24363489502566 -19.478157329665173, -49.56250000000001 -19.5 C-49.56250000000001 -19.5, -49.56250000000001 -19.5, -49.5625 -19.5" stroke="none" stroke-width="0" fill="#eee" style=""/><path d="M-49.5625 -19.5 C-20.31437311262936 -19.5, 8.933753774741277 -19.5, 49.5625 -19.5 M-49.5625 -19.5 C-27.861734525269206 -19.5, -6.160969050538412 -19.5, 49.5625 -19.5 M49.5625 -19.5 C49.5625 -19.5, 49.5625 -19.5, 49.5625 -19.5 M49.5625 -19.5 C49.5625 -19.5, 49.5625 -19.5, 49.5625 -19.5 M49.5625 -19.5 C49.97337079383265 -19.486824173353273, 50.3842415876653 -19.473648346706543, 50.8118692896239 -19.45993515863156 M49.5625 -19.5 C49.8906021707486 -19.489478401996227, 50.218704341497194 -19.478956803992453, 50.8118692896239 -19.45993515863156 M50.8118692896239 -19.45993515863156 C51.06981190336045 -19.435051744905774, 51.327754517097 -19.41016833117999, 52.056104652847864 -19.3399052695533 M50.8118692896239 -19.45993515863156 C51.270615406972055 -19.415680472413907, 51.72936152432022 -19.371425786196255, 52.056104652847864 -19.3399052695533 M52.056104652847864 -19.3399052695533 C52.34642429065897 -19.292968641974415, 52.63674392847008 -19.246032014395535, 53.29009325967676 -19.140403561325776 M52.056104652847864 -19.3399052695533 C52.38574367580766 -19.286611788709962, 52.715382698767456 -19.233318307866625, 53.29009325967676 -19.140403561325776 M53.29009325967676 -19.140403561325776 C53.71444486362099 -19.043548076878512, 54.13879646756522 -18.946692592431248, 54.50876438623539 -18.862249829261074 M53.29009325967676 -19.140403561325776 C53.69116693518721 -19.04886111214084, 54.09224061069767 -18.957318662955906, 54.50876438623539 -18.862249829261074 M54.50876438623539 -18.862249829261074 C54.76877027752635 -18.785081445524693, 55.0287761688173 -18.70791306178831, 55.707110251460605 -18.50658706670804 M54.50876438623539 -18.862249829261074 C54.98645399682906 -18.720474060280807, 55.46414360742273 -18.57869829130054, 55.707110251460605 -18.50658706670804 M55.707110251460605 -18.50658706670804 C56.17381480737691 -18.334835475961217, 56.64051936329321 -18.163083885214398, 56.8802065951478 -18.074876768247425 M55.707110251460605 -18.50658706670804 C55.946370661392706 -18.418537024154045, 56.1856310713248 -18.330486981600046, 56.8802065951478 -18.074876768247425 M56.8802065951478 -18.074876768247425 C57.21510590883219 -17.926626776514514, 57.55000522251659 -17.7783767847816, 58.02323291279238 -17.568892924097174 M56.8802065951478 -18.074876768247425 C57.28339970975097 -17.896395136711394, 57.68659282435414 -17.717913505175364, 58.02323291279238 -17.568892924097174 M58.02323291279238 -17.568892924097174 C58.37178706448448 -17.387052446419, 58.72034121617657 -17.20521196874082, 59.13149226407678 -16.990714730406097 M58.02323291279238 -17.568892924097174 C58.42248365169137 -17.360604069345875, 58.821734390590365 -17.152315214594577, 59.13149226407678 -16.990714730406097 M59.13149226407678 -16.990714730406097 C59.400787129604694 -16.827466600370787, 59.6700819951326 -16.664218470335477, 60.2004305736057 -16.342718045390892 M59.13149226407678 -16.990714730406097 C59.47727833807221 -16.781097180285546, 59.82306441206763 -16.57147963016499, 60.2004305736057 -16.342718045390892 M60.2004305736057 -16.342718045390892 C60.60568083982813 -16.060033002675404, 61.01093110605056 -15.777347959959915, 61.22565534457871 -15.627565626425154 M60.2004305736057 -16.342718045390892 C60.54298190812925 -16.103769063235536, 60.8855332426528 -15.864820081080182, 61.22565534457871 -15.627565626425154 M61.22565534457871 -15.627565626425154 C61.51915760871326 -15.393505381201122, 61.812659872847796 -15.159445135977087, 62.202953708501866 -14.848196188198123 M61.22565534457871 -15.627565626425154 C61.54485482511634 -15.373012534951307, 61.864054305653966 -15.11845944347746, 62.202953708501866 -14.848196188198123 M62.202953708501866 -14.848196188198123 C62.5574850289713 -14.5262202233325, 62.91201634944073 -14.204244258466876, 63.12830973676799 -14.007812326905688 M62.202953708501866 -14.848196188198123 C62.45920198675462 -14.615478281846885, 62.71545026500738 -14.382760375495645, 63.12830973676799 -14.007812326905688 M63.12830973676799 -14.007812326905688 C63.36324686346496 -13.765220454894243, 63.59818399016193 -13.522628582882799, 63.99792094296865 -13.10986736009568 M63.12830973676799 -14.007812326905688 C63.41984129488475 -13.706782057964075, 63.71137285300151 -13.405751789022464, 63.99792094296865 -13.10986736009568 M63.99792094296865 -13.10986736009568 C64.27257810254929 -12.787239432017138, 64.54723526212994 -12.464611503938597, 64.80821390812658 -12.158051136245305 M63.99792094296865 -13.10986736009568 C64.31287328721218 -12.739906415251143, 64.62782563145572 -12.369945470406604, 64.80821390812658 -12.158051136245305 M64.80821390812658 -12.158051136245305 C64.9837508715793 -11.922847596964996, 65.15928783503205 -11.687644057684686, 65.55585896464063 -11.156274872382312 M64.80821390812658 -12.158051136245305 C65.08198358439586 -11.79122471097506, 65.35575326066514 -11.424398285704816, 65.55585896464063 -11.156274872382312 M65.55585896464063 -11.156274872382312 C65.82136284178223 -10.74838961931917, 66.08686671892384 -10.340504366256027, 66.23778387860425 -10.108655082055241 M65.55585896464063 -11.156274872382312 C65.82361940177461 -10.744922937199695, 66.09137983890857 -10.333571002017075, 66.23778387860425 -10.108655082055241 M66.23778387860425 -10.108655082055241 C66.41895244716521 -9.78697194326838, 66.60012101572619 -9.465288804481519, 66.8511864742735 -9.019496659696287 M66.23778387860425 -10.108655082055241 C66.47623284379041 -9.685264798791223, 66.71468180897658 -9.261874515527204, 66.8511864742735 -9.019496659696287 M66.8511864742735 -9.019496659696287 C66.98506797536689 -8.741488858070635, 67.11894947646029 -8.463481056444985, 67.39354614880834 -7.893275190886684 M66.8511864742735 -9.019496659696287 C66.96366515532297 -8.785932271838828, 67.07614383637244 -8.55236788398137, 67.39354614880834 -7.893275190886684 M67.39354614880834 -7.893275190886684 C67.54596505247622 -7.5167975520079935, 67.6983839561441 -7.140319913129303, 67.86263422997033 -6.734618561215508 M67.39354614880834 -7.893275190886684 C67.49904488653725 -7.632691269016959, 67.60454362426614 -7.372107347147233, 67.86263422997033 -6.734618561215508 M67.86263422997033 -6.734618561215508 C67.99722015481862 -6.32926719892751, 68.13180607966692 -5.923915836639511, 68.25652313421489 -5.548287939305138 M67.86263422997033 -6.734618561215508 C67.96641408132102 -6.422050184021028, 68.07019393267171 -6.109481806826548, 68.25652313421489 -5.548287939305138 M68.25652313421489 -5.548287939305138 C68.3710882633099 -5.111401449224816, 68.48565339240491 -4.674514959144495, 68.57359428754556 -4.339158212148133 M68.25652313421489 -5.548287939305138 C68.36343752936517 -5.140577013605152, 68.47035192451544 -4.732866087905166, 68.57359428754556 -4.339158212148133 M68.57359428754556 -4.339158212148133 C68.62237802729429 -4.088664018985424, 68.67116176704303 -3.8381698258227157, 68.81254477658177 -3.1121979531509023 M68.57359428754556 -4.339158212148133 C68.62620888987264 -4.068993349298705, 68.67882349219973 -3.7988284864492776, 68.81254477658177 -3.1121979531509023 M68.81254477658177 -3.1121979531509023 C68.84557589342752 -2.856015133627033, 68.87860701027329 -2.599832314103164, 68.97239270250937 -1.872449005199798 M68.81254477658177 -3.1121979531509023 C68.84768222776958 -2.8396788204127885, 68.8828196789574 -2.5671596876746747, 68.97239270250937 -1.872449005199798 M68.97239270250937 -1.872449005199798 C69.0026189862764 -1.401650237311208, 69.03284527004342 -0.9308514694226182, 69.05248121591342 -0.6250057626472757 M68.97239270250937 -1.872449005199798 C68.99133880926341 -1.5773480994835247, 69.01028491601744 -1.2822471937672515, 69.05248121591342 -0.6250057626472757 M69.05248121591342 -0.6250057626472757 C69.05248121591342 -0.2793534171263132, 69.05248121591342 0.06629892839464935, 69.05248121591342 0.625005762647271 M69.05248121591342 -0.6250057626472757 C69.05248121591342 -0.3006565641383919, 69.05248121591342 0.02369263437049185, 69.05248121591342 0.625005762647271 M69.05248121591342 0.625005762647271 C69.03358659624595 0.9193047154304781, 69.01469197657849 1.2136036682136853, 68.97239270250937 1.8724490051997846 M69.05248121591342 0.625005762647271 C69.03360690118386 0.9189884496328714, 69.01473258645429 1.2129711366184717, 68.97239270250937 1.8724490051997846 M68.97239270250937 1.8724490051997846 C68.91208099245256 2.340214718506083, 68.85176928239576 2.807980431812382, 68.81254477658177 3.1121979531508885 M68.97239270250937 1.8724490051997846 C68.93255980477876 2.181385094102982, 68.89272690704816 2.4903211830061793, 68.81254477658177 3.1121979531508885 M68.81254477658177 3.1121979531508885 C68.71696956814566 3.6029564486428973, 68.62139435970954 4.0937149441349066, 68.57359428754556 4.339158212148129 M68.81254477658177 3.1121979531508885 C68.72665446839696 3.5532265327568897, 68.64076416021213 3.994255112362891, 68.57359428754556 4.339158212148129 M68.57359428754556 4.339158212148129 C68.48571389909002 4.674284220930418, 68.39783351063447 5.009410229712707, 68.25652313421489 5.548287939305125 M68.57359428754556 4.339158212148129 C68.49146820340665 4.652340564639828, 68.40934211926773 4.965522917131528, 68.25652313421489 5.548287939305125 M68.25652313421489 5.548287939305125 C68.1603080722567 5.838072376134896, 68.0640930102985 6.1278568129646676, 67.86263422997033 6.734618561215495 M68.25652313421489 5.548287939305125 C68.10455627435353 6.0059879085765715, 67.95258941449215 6.463687877848018, 67.86263422997033 6.734618561215495 M67.86263422997033 6.734618561215495 C67.7395265605374 7.038696884839683, 67.61641889110449 7.3427752084638716, 67.39354614880834 7.893275190886679 M67.86263422997033 6.734618561215495 C67.71513116424512 7.0989539853345365, 67.5676280985199 7.463289409453578, 67.39354614880834 7.893275190886679 M67.39354614880834 7.893275190886679 C67.26200521052027 8.166422763767065, 67.13046427223219 8.439570336647451, 66.8511864742735 9.019496659696284 M67.39354614880834 7.893275190886679 C67.20395848609262 8.286958029042024, 67.0143708233769 8.68064086719737, 66.8511864742735 9.019496659696284 M66.8511864742735 9.019496659696284 C66.62042924336069 9.429229489885413, 66.38967201244787 9.838962320074543, 66.23778387860425 10.108655082055236 M66.8511864742735 9.019496659696284 C66.71555609683395 9.260322128905194, 66.5799257193944 9.501147598114105, 66.23778387860425 10.108655082055236 M66.23778387860425 10.108655082055236 C66.08698029407867 10.340329884319, 65.9361767095531 10.572004686582765, 65.55585896464065 11.156274872382301 M66.23778387860425 10.108655082055236 C66.09770762241595 10.32384982730194, 65.95763136622767 10.539044572548644, 65.55585896464065 11.156274872382301 M65.55585896464065 11.156274872382301 C65.32181140443183 11.469877280890756, 65.08776384422299 11.78347968939921, 64.80821390812659 12.158051136245302 M65.55585896464065 11.156274872382301 C65.2980494389406 11.501716149889406, 65.04023991324055 11.847157427396512, 64.80821390812659 12.158051136245302 M64.80821390812659 12.158051136245302 C64.64272969540858 12.352438308822327, 64.47724548269058 12.546825481399354, 63.99792094296866 13.10986736009567 M64.80821390812659 12.158051136245302 C64.54428117080852 12.468081547697302, 64.28034843349046 12.778111959149303, 63.99792094296866 13.10986736009567 M63.99792094296866 13.10986736009567 C63.76607998610784 13.349262182551021, 63.53423902924702 13.588657005006372, 63.12830973676799 14.007812326905684 M63.99792094296866 13.10986736009567 C63.698174205681035 13.419380476009952, 63.398427468393415 13.728893591924232, 63.12830973676799 14.007812326905684 M63.12830973676799 14.007812326905684 C62.87175888931044 14.240805018603174, 62.615208041852895 14.473797710300664, 62.20295370850189 14.848196188198111 M63.12830973676799 14.007812326905684 C62.76041018337909 14.341928967204705, 62.392510629990205 14.676045607503728, 62.20295370850189 14.848196188198111 M62.20295370850189 14.848196188198111 C61.841947021582065 15.136089414225271, 61.480940334662236 15.423982640252433, 61.22565534457871 15.627565626425152 M62.20295370850189 14.848196188198111 C61.9312855799486 15.064844291326839, 61.65961745139532 15.281492394455565, 61.22565534457871 15.627565626425152 M61.22565534457871 15.627565626425152 C60.85960318984449 15.88290776342536, 60.49355103511028 16.138249900425567, 60.20043057360571 16.34271804539089 M61.22565534457871 15.627565626425152 C60.968063197831555 15.807250757011658, 60.7104710510844 15.986935887598165, 60.20043057360571 16.34271804539089 M60.20043057360571 16.34271804539089 C59.93037977830925 16.506424424494227, 59.660328983012796 16.670130803597566, 59.13149226407678 16.990714730406093 M60.20043057360571 16.34271804539089 C59.791165487080036 16.59081694595136, 59.381900400554365 16.83891584651183, 59.13149226407678 16.990714730406093 M59.13149226407678 16.990714730406093 C58.78910648323955 17.16933717296032, 58.446720702402324 17.347959615514544, 58.02323291279239 17.56889292409717 M59.13149226407678 16.990714730406093 C58.79909518782865 17.164126072174255, 58.46669811158051 17.33753741394242, 58.02323291279239 17.56889292409717 M58.02323291279239 17.56889292409717 C57.77873534997914 17.67712474239209, 57.534237787165885 17.785356560687006, 56.880206595147804 18.07487676824742 M58.02323291279239 17.56889292409717 C57.70200327675006 17.71109175503452, 57.38077364070774 17.853290585971866, 56.880206595147804 18.07487676824742 M56.880206595147804 18.07487676824742 C56.626216880706814 18.16834733101689, 56.372227166265816 18.261817893786358, 55.70711025146062 18.506587066708033 M56.880206595147804 18.07487676824742 C56.502321811660295 18.21394186169947, 56.124437028172785 18.35300695515152, 55.70711025146062 18.506587066708033 M55.70711025146062 18.506587066708033 C55.41209843649312 18.594145024841772, 55.11708662152561 18.681702982975512, 54.50876438623541 18.86224982926107 M55.70711025146062 18.506587066708033 C55.310110029039784 18.624414648825844, 54.91310980661895 18.74224223094366, 54.50876438623541 18.86224982926107 M54.50876438623541 18.86224982926107 C54.209491993571575 18.930556799951717, 53.91021960090774 18.998863770642366, 53.290093259676766 19.140403561325773 M54.50876438623541 18.86224982926107 C54.11369792021743 18.95242117208005, 53.718631454199446 19.042592514899034, 53.290093259676766 19.140403561325773 M53.290093259676766 19.140403561325773 C53.030638391736076 19.18235021227187, 52.77118352379538 19.224296863217972, 52.05610465284788 19.3399052695533 M53.290093259676766 19.140403561325773 C52.834757161468275 19.214018770499944, 52.37942106325978 19.287633979674112, 52.05610465284788 19.3399052695533 M52.05610465284788 19.3399052695533 C51.73078547518791 19.371288419368604, 51.40546629752794 19.402671569183905, 50.8118692896239 19.45993515863156 M52.05610465284788 19.3399052695533 C51.6415966972752 19.379892353508644, 51.22708874170252 19.419879437463987, 50.8118692896239 19.45993515863156 M50.8118692896239 19.45993515863156 C50.47279945970936 19.470808468117532, 50.133729629794814 19.481681777603505, 49.56250000000001 19.5 M50.8118692896239 19.45993515863156 C50.54282783251044 19.46856279450376, 50.27378637539698 19.47719043037596, 49.56250000000001 19.5 M49.56250000000001 19.5 C49.56250000000001 19.5, 49.56250000000001 19.5, 49.5625 19.5 M49.56250000000001 19.5 C49.56250000000001 19.5, 49.5625 19.5, 49.5625 19.5 M49.5625 19.5 C12.520726427525211 19.5, -24.521047144949577 19.5, -49.56249999999999 19.5 M49.5625 19.5 C24.83745396181939 19.5, 0.11240792363877716 19.5, -49.56249999999999 19.5 M-49.56249999999999 19.5 C-50.02192711829802 19.48526706653682, -50.48135423659604 19.470534133073638, -50.81186928962389 19.45993515863156 M-49.56249999999999 19.5 C-49.84672278527277 19.490885528482394, -50.130945570545535 19.481771056964785, -50.81186928962389 19.45993515863156 M-50.81186928962389 19.45993515863156 C-51.28400998982338 19.414388313115584, -51.75615069002287 19.36884146759961, -52.05610465284787 19.3399052695533 M-50.81186928962389 19.45993515863156 C-51.16885530393062 19.425497147169885, -51.52584131823735 19.39105913570821, -52.05610465284787 19.3399052695533 M-52.05610465284787 19.3399052695533 C-52.38854122593491 19.286159502500713, -52.72097779902195 19.23241373544813, -53.29009325967676 19.140403561325773 M-52.05610465284787 19.3399052695533 C-52.391771589695054 19.28563724233982, -52.72743852654223 19.23136921512634, -53.29009325967676 19.140403561325773 M-53.29009325967676 19.140403561325773 C-53.658518105595725 19.056312994441573, -54.026942951514684 18.972222427557373, -54.508764386235384 18.862249829261074 M-53.29009325967676 19.140403561325773 C-53.759557183747255 19.033251484195087, -54.22902110781776 18.926099407064406, -54.508764386235384 18.862249829261074 M-54.508764386235384 18.862249829261074 C-54.80109462762371 18.77548774808977, -55.09342486901204 18.688725666918465, -55.70711025146059 18.506587066708043 M-54.508764386235384 18.862249829261074 C-54.75040986889596 18.79053071843044, -54.99205535155653 18.718811607599804, -55.70711025146059 18.506587066708043 M-55.70711025146059 18.506587066708043 C-56.16032061632523 18.33980146300717, -56.61353098118987 18.173015859306293, -56.8802065951478 18.074876768247425 M-55.70711025146059 18.506587066708043 C-56.02226835375205 18.390605971775226, -56.3374264560435 18.27462487684241, -56.8802065951478 18.074876768247425 M-56.8802065951478 18.074876768247425 C-57.222566054113074 17.923324391496013, -57.56492551307835 17.7717720147446, -58.02323291279238 17.568892924097174 M-56.8802065951478 18.074876768247425 C-57.21254744257416 17.92775933363274, -57.54488829000052 17.78064189901805, -58.02323291279238 17.568892924097174 M-58.02323291279238 17.568892924097174 C-58.4328931343063 17.355173448933257, -58.84255335582022 17.14145397376934, -59.13149226407678 16.990714730406097 M-58.02323291279238 17.568892924097174 C-58.28020809523282 17.434829136018454, -58.53718327767327 17.300765347939734, -59.13149226407678 16.990714730406097 M-59.13149226407678 16.990714730406097 C-59.55597808389323 16.733388931877798, -59.98046390370967 16.476063133349502, -60.200430573605686 16.3427180453909 M-59.13149226407678 16.990714730406097 C-59.427790310816675 16.811097113231774, -59.72408835755657 16.631479496057455, -60.200430573605686 16.3427180453909 M-60.200430573605686 16.3427180453909 C-60.51496069988559 16.12331544508776, -60.8294908261655 15.903912844784616, -61.22565534457871 15.627565626425156 M-60.200430573605686 16.3427180453909 C-60.5620476321433 16.090469639505226, -60.923664690680916 15.838221233619551, -61.22565534457871 15.627565626425156 M-61.22565534457871 15.627565626425156 C-61.534671730355505 15.381133282039542, -61.8436881161323 15.134700937653928, -62.202953708501866 14.848196188198125 M-61.22565534457871 15.627565626425156 C-61.50150135041678 15.407585777339792, -61.77734735625486 15.187605928254428, -62.202953708501866 14.848196188198125 M-62.202953708501866 14.848196188198125 C-62.439883919877225 14.633022439056896, -62.676814131252584 14.417848689915667, -63.128309736767974 14.007812326905697 M-62.202953708501866 14.848196188198125 C-62.40917681257353 14.660909821444577, -62.61539991664519 14.473623454691028, -63.128309736767974 14.007812326905697 M-63.128309736767974 14.007812326905697 C-63.3330151687217 13.796437161784949, -63.53772060067543 13.585061996664201, -63.997920942968655 13.109867360095677 M-63.128309736767974 14.007812326905697 C-63.351092624763396 13.77777070423516, -63.57387551275882 13.547729081564622, -63.997920942968655 13.109867360095677 M-63.997920942968655 13.109867360095677 C-64.18953598661322 12.884785426625916, -64.38115103025778 12.659703493156153, -64.80821390812658 12.158051136245307 M-63.997920942968655 13.109867360095677 C-64.31691101745902 12.73516346754985, -64.63590109194939 12.360459575004022, -64.80821390812658 12.158051136245307 M-64.80821390812658 12.158051136245307 C-65.02285816121406 11.870447391601811, -65.23750241430155 11.582843646958315, -65.55585896464063 11.156274872382316 M-64.80821390812658 12.158051136245307 C-65.02303270305512 11.87021352143587, -65.23785149798368 11.582375906626432, -65.55585896464063 11.156274872382316 M-65.55585896464063 11.156274872382316 C-65.8190112479023 10.75200229901014, -66.08216353116396 10.347729725637965, -66.23778387860425 10.108655082055249 M-65.55585896464063 11.156274872382316 C-65.76384916642563 10.836746069251209, -65.97183936821061 10.517217266120104, -66.23778387860425 10.108655082055249 M-66.23778387860425 10.108655082055249 C-66.43689651139937 9.75511044018711, -66.63600914419449 9.401565798318973, -66.8511864742735 9.019496659696289 M-66.23778387860425 10.108655082055249 C-66.44573264015848 9.739420998820245, -66.65368140171272 9.370186915585242, -66.8511864742735 9.019496659696289 M-66.8511864742735 9.019496659696289 C-67.01599410893628 8.677270080000556, -67.18080174359906 8.335043500304822, -67.39354614880834 7.893275190886686 M-66.8511864742735 9.019496659696289 C-67.01423920421912 8.680914177194676, -67.17729193416474 8.342331694693065, -67.39354614880834 7.893275190886686 M-67.39354614880834 7.893275190886686 C-67.50342934565164 7.621861570236643, -67.61331254249495 7.3504479495865995, -67.86263422997033 6.73461856121551 M-67.39354614880834 7.893275190886686 C-67.53550523504062 7.542633503300729, -67.67746432127291 7.19199181571477, -67.86263422997033 6.73461856121551 M-67.86263422997033 6.73461856121551 C-68.01922885580883 6.26298049815528, -68.17582348164734 5.79134243509505, -68.25652313421489 5.5482879393051325 M-67.86263422997033 6.73461856121551 C-67.95964088464986 6.442449973232233, -68.05664753932939 6.150281385248958, -68.25652313421489 5.5482879393051325 M-68.25652313421489 5.5482879393051325 C-68.33900767754403 5.233738626563858, -68.42149222087319 4.919189313822585, -68.57359428754556 4.339158212148136 M-68.25652313421489 5.5482879393051325 C-68.36095258441837 5.150053185669218, -68.46538203462185 4.751818432033304, -68.57359428754556 4.339158212148136 M-68.57359428754556 4.339158212148136 C-68.62170713681213 4.092108899818601, -68.66981998607869 3.8450595874890654, -68.81254477658177 3.112197953150904 M-68.57359428754556 4.339158212148136 C-68.62924798332794 4.0533882467183995, -68.68490167911031 3.7676182812886623, -68.81254477658177 3.112197953150904 M-68.81254477658177 3.112197953150904 C-68.87036632503782 2.6637454414820687, -68.92818787349385 2.2152929298132333, -68.97239270250937 1.872449005199809 M-68.81254477658177 3.112197953150904 C-68.86653474224867 2.6934624409630303, -68.92052470791558 2.2747269287751566, -68.97239270250937 1.872449005199809 M-68.97239270250937 1.872449005199809 C-68.99357097721834 1.542580281812003, -69.0147492519273 1.2127115584241968, -69.05248121591342 0.6250057626472781 M-68.97239270250937 1.872449005199809 C-68.99826451025481 1.4694747162171309, -69.02413631800026 1.0665004272344527, -69.05248121591342 0.6250057626472781 M-69.05248121591342 0.6250057626472781 C-69.05248121591342 0.14013414434273297, -69.05248121591342 -0.3447374739618122, -69.05248121591342 -0.6250057626472687 M-69.05248121591342 0.6250057626472781 C-69.05248121591342 0.3047529841915168, -69.05248121591342 -0.015499794264244526, -69.05248121591342 -0.6250057626472687 M-69.05248121591342 -0.6250057626472687 C-69.0317620252333 -0.9477238817197396, -69.0110428345532 -1.2704420007922106, -68.97239270250937 -1.8724490051997822 M-69.05248121591342 -0.6250057626472687 C-69.0313498695301 -0.9541435394832471, -69.01021852314678 -1.2832813163192256, -68.97239270250937 -1.8724490051997822 M-68.97239270250937 -1.8724490051997822 C-68.92751833693072 -2.220485723181953, -68.88264397135208 -2.568522441164124, -68.81254477658177 -3.112197953150895 M-68.97239270250937 -1.8724490051997822 C-68.91154541699349 -2.3443685360053763, -68.8506981314776 -2.8162880668109707, -68.81254477658177 -3.112197953150895 M-68.81254477658177 -3.112197953150895 C-68.75354149881385 -3.415167314142021, -68.69453822104592 -3.7181366751331475, -68.57359428754556 -4.339158212148126 M-68.81254477658177 -3.112197953150895 C-68.73463297123163 -3.5122586069579627, -68.6567211658815 -3.91231926076503, -68.57359428754556 -4.339158212148126 M-68.57359428754556 -4.339158212148126 C-68.49204911300455 -4.650125304575205, -68.41050393846355 -4.961092397002285, -68.25652313421489 -5.548287939305123 M-68.57359428754556 -4.339158212148126 C-68.46288775210625 -4.761330212294146, -68.35218121666696 -5.183502212440166, -68.25652313421489 -5.548287939305123 M-68.25652313421489 -5.548287939305123 C-68.16893151040864 -5.8120999543795175, -68.0813398866024 -6.075911969453912, -67.86263422997033 -6.734618561215485 M-68.25652313421489 -5.548287939305123 C-68.1169039005445 -5.968798825816422, -67.9772846668741 -6.38930971232772, -67.86263422997033 -6.734618561215485 M-67.86263422997033 -6.734618561215485 C-67.73544485968091 -7.04877876486952, -67.60825548939151 -7.362938968523555, -67.39354614880834 -7.893275190886676 M-67.86263422997033 -6.734618561215485 C-67.76484459441374 -6.9761608516742415, -67.66705495885715 -7.217703142132997, -67.39354614880834 -7.893275190886676 M-67.39354614880834 -7.893275190886676 C-67.19485561650347 -8.305860332514092, -66.9961650841986 -8.71844547414151, -66.8511864742735 -9.019496659696282 M-67.39354614880834 -7.893275190886676 C-67.27588128821094 -8.137608791541869, -67.15821642761355 -8.381942392197063, -66.8511864742735 -9.019496659696282 M-66.8511864742735 -9.019496659696282 C-66.67605325686142 -9.330463421372711, -66.50092003944935 -9.64143018304914, -66.23778387860425 -10.108655082055243 M-66.8511864742735 -9.019496659696282 C-66.69309417934807 -9.300205537917163, -66.53500188442264 -9.580914416138047, -66.23778387860425 -10.108655082055243 M-66.23778387860425 -10.108655082055243 C-66.05510373856272 -10.389300833645175, -65.87242359852121 -10.669946585235108, -65.55585896464063 -11.156274872382308 M-66.23778387860425 -10.108655082055243 C-66.04538542902235 -10.404230766830707, -65.85298697944044 -10.699806451606172, -65.55585896464063 -11.156274872382308 M-65.55585896464063 -11.156274872382308 C-65.27193471577067 -11.536707499836883, -64.9880104669007 -11.917140127291457, -64.80821390812659 -12.158051136245302 M-65.55585896464063 -11.156274872382308 C-65.29922055444732 -11.500146961801216, -65.042582144254 -11.844019051220123, -64.80821390812659 -12.158051136245302 M-64.80821390812659 -12.158051136245302 C-64.5976213725363 -12.405425111604405, -64.38702883694599 -12.65279908696351, -63.99792094296866 -13.10986736009567 M-64.80821390812659 -12.158051136245302 C-64.49130422169723 -12.530311286597227, -64.17439453526787 -12.902571436949152, -63.99792094296866 -13.10986736009567 M-63.99792094296866 -13.10986736009567 C-63.81180004480486 -13.302052468259717, -63.62567914664106 -13.494237576423766, -63.128309736767996 -14.007812326905677 M-63.99792094296866 -13.10986736009567 C-63.72137637367996 -13.395422332617647, -63.44483180439125 -13.680977305139624, -63.128309736767996 -14.007812326905677 M-63.128309736767996 -14.007812326905677 C-62.81763262648923 -14.28996105839496, -62.50695551621046 -14.572109789884244, -62.20295370850189 -14.848196188198107 M-63.128309736767996 -14.007812326905677 C-62.93350879319914 -14.184725389704385, -62.73870784963028 -14.361638452503092, -62.20295370850189 -14.848196188198107 M-62.20295370850189 -14.848196188198107 C-61.99745888520229 -15.01207284133263, -61.79196406190269 -15.175949494467151, -61.22565534457872 -15.627565626425149 M-62.20295370850189 -14.848196188198107 C-61.9791304073777 -15.02668931465646, -61.75530710625352 -15.205182441114813, -61.22565534457872 -15.627565626425149 M-61.22565534457872 -15.627565626425149 C-60.85312252402902 -15.887428395354735, -60.48058970347932 -16.147291164284322, -60.200430573605715 -16.342718045390885 M-61.22565534457872 -15.627565626425149 C-60.97014604729765 -15.805797851389208, -60.714636750016595 -15.98403007635327, -60.200430573605715 -16.342718045390885 M-60.200430573605715 -16.342718045390885 C-59.97908457808526 -16.476899288648838, -59.757738582564805 -16.61108053190679, -59.13149226407679 -16.99071473040609 M-60.200430573605715 -16.342718045390885 C-59.9660631783801 -16.48479293767235, -59.73169578315447 -16.62686782995381, -59.13149226407679 -16.99071473040609 M-59.13149226407679 -16.99071473040609 C-58.84800836218449 -17.1386081004432, -58.56452446029219 -17.286501470480307, -58.02323291279239 -17.56889292409717 M-59.13149226407679 -16.99071473040609 C-58.78339941744971 -17.17231454552733, -58.43530657082263 -17.353914360648567, -58.02323291279239 -17.56889292409717 M-58.02323291279239 -17.56889292409717 C-57.71179947925153 -17.70675526678114, -57.40036604571067 -17.84461760946511, -56.880206595147804 -18.07487676824742 M-58.02323291279239 -17.56889292409717 C-57.7249231349957 -17.700945813682612, -57.42661335719901 -17.832998703268057, -56.880206595147804 -18.07487676824742 M-56.880206595147804 -18.07487676824742 C-56.60801854042349 -18.175044488464767, -56.33583048569917 -18.27521220868211, -55.70711025146062 -18.506587066708033 M-56.880206595147804 -18.07487676824742 C-56.6111275658745 -18.173900338359278, -56.3420485366012 -18.27292390847113, -55.70711025146062 -18.506587066708033 M-55.70711025146062 -18.506587066708033 C-55.44120800734389 -18.585505457012516, -55.17530576322716 -18.664423847317, -54.50876438623541 -18.862249829261067 M-55.70711025146062 -18.506587066708033 C-55.46632132145872 -18.578051957205712, -55.225532391456824 -18.64951684770339, -54.50876438623541 -18.862249829261067 M-54.50876438623541 -18.862249829261067 C-54.20526040251772 -18.931522632996046, -53.90175641880003 -19.00079543673102, -53.290093259676766 -19.140403561325773 M-54.50876438623541 -18.862249829261067 C-54.12757094940724 -18.949254743697452, -53.746377512579066 -19.036259658133837, -53.290093259676766 -19.140403561325773 M-53.290093259676766 -19.140403561325773 C-53.011155804795465 -19.185500005838712, -52.73221834991417 -19.23059645035165, -52.05610465284788 -19.3399052695533 M-53.290093259676766 -19.140403561325773 C-52.88905254820535 -19.205240713439306, -52.48801183673394 -19.270077865552835, -52.05610465284788 -19.3399052695533 M-52.05610465284788 -19.3399052695533 C-51.71165781593918 -19.37313364165195, -51.367210979030496 -19.406362013750602, -50.8118692896239 -19.45993515863156 M-52.05610465284788 -19.3399052695533 C-51.591125297424874 -19.384761268751465, -51.12614594200186 -19.42961726794963, -50.8118692896239 -19.45993515863156 M-50.8118692896239 -19.45993515863156 C-50.47569564838306 -19.470715592983854, -50.13952200714221 -19.481496027336153, -49.56250000000001 -19.5 M-50.8118692896239 -19.45993515863156 C-50.35088927984243 -19.474717890302095, -49.889909270060954 -19.489500621972628, -49.56250000000001 -19.5 M-49.56250000000001 -19.5 C-49.56250000000001 -19.5, -49.5625 -19.5, -49.5625 -19.5 M-49.56250000000001 -19.5 C-49.56250000000001 -19.5, -49.5625 -19.5, -49.5625 -19.5" stroke="#999" stroke-width="1.3" fill="none" stroke-dasharray="0 0" style=""/></g><g class="label" style="" transform="translate(-56.6875, -12)"><rect/><foreignObject width="113.375" height="24"><div xmlns="http://www.w3.org/1999/xhtml" style="display: table-cell; white-space: nowrap; line-height: 1.5; max-width: 200px; text-align: center;"><span class="nodeLabel markdown-node-label"><p>🏁 conta pronta</p></span></div></foreignObject></g></g></g></g></g><defs><filter id="my-svg-drop-shadow" height="130%" width="130%"><feDropShadow dx="4" dy="4" stdDeviation="0" flood-opacity="0.06" flood-color="#000000"/></filter></defs><defs><filter id="my-svg-drop-shadow-small" height="150%" width="150%"><feDropShadow dx="2" dy="2" stdDeviation="0" flood-opacity="0.06" flood-color="#000000"/></filter></defs><linearGradient id="my-svg-gradient" gradientUnits="objectBoundingBox" x1="0%" y1="0%" x2="100%" y2="0%"><stop offset="0%" stop-color="hsl(0, 0%, 83.3333333333%)" stop-opacity="1"/><stop offset="100%" stop-color="hsl(0, 0%, 88.9215686275%)" stop-opacity="1"/></linearGradient></svg>